<?xml version="1.0" encoding="UTF-8"?>
<svg version="1.1" xmlns="http://www.w3.org/2000/svg" width="612" height="449">
<path d="M0,0 L612,0 L612,449 L0,449 Z " fill="#C30108" transform="translate(0,0)"/>
<path d="M0,0 L5,5 L6,12 L6,20 L7,23 L7,25 L17,35 L19,38 L20,51 L22,51 L22,45 L23,45 L24,53 L24,57 L23,62 L23,78 L25,78 L26,73 L28,77 L28,84 L30,84 L30,104 L41,104 L42,101 L43,103 L53,105 L53,92 L57,92 L57,99 L66,99 L66,93 L70,93 L70,111 L73,111 L77,110 L79,106 L83,103 L84,95 L85,95 L85,104 L90,106 L90,111 L88,111 L88,113 L101,114 L103,112 L104,115 L111,116 L111,112 L113,112 L113,116 L121,116 L121,112 L123,112 L123,116 L132,116 L133,112 L133,116 L141,116 L142,112 L142,116 L148,116 L148,103 L145,102 L145,100 L147,99 L148,94 L150,94 L151,97 L160,97 L163,94 L165,94 L165,90 L161,90 L161,87 L165,88 L167,84 L168,88 L174,87 L174,90 L168,90 L170,94 L173,95 L174,93 L175,97 L182,98 L182,93 L185,92 L186,101 L181,102 L185,103 L185,116 L189,116 L190,113 L190,116 L198,116 L198,112 L200,112 L200,116 L208,116 L208,112 L210,112 L210,116 L217,115 L218,112 L220,112 L220,116 L227,116 L227,112 L229,112 L229,114 L253,112 L255,111 L255,114 L260,116 L260,123 L257,126 L257,166 L183,166 L182,154 L174,154 L174,166 L171,166 L171,154 L162,154 L162,167 L158,167 L158,156 L159,154 L150,154 L150,166 L7,166 L6,144 L3,142 L-2,142 L-5,145 L-6,166 L-113,166 L-113,114 L-114,112 L-112,112 L-112,96 L-114,95 L-94,96 L-94,94 L-110,94 L-110,89 L-107,86 L-107,83 L-105,83 L-103,72 L-101,70 L-97,88 L-94,90 L-93,88 L-93,94 L-90,95 L-91,96 L-91,104 L-80,104 L-80,100 L-78,100 L-78,105 L-74,104 L-67,104 L-68,92 L-69,90 L-67,90 L-68,67 L-64,66 L-66,62 L-66,59 L-63,59 L-62,48 L-61,46 L-61,36 L-60,32 L-58,32 L-55,53 L-54,56 L-54,68 L-56,69 L-59,68 L-61,72 L-62,87 L-54,86 L-54,81 L-53,81 L-53,86 L-51,86 L-51,77 L-50,77 L-50,91 L-63,92 L-62,98 L-55,98 L-54,93 L-50,93 L-50,104 L-39,104 L-39,99 L-37,99 L-37,103 L-30,102 L-31,98 L-31,89 L-29,84 L-28,73 L-26,73 L-26,79 L-23,78 L-22,73 L-21,57 L-24,56 L-23,54 L-7,54 L-1,52 L6,53 L8,54 L22,54 L13,53 L13,51 L6,51 L3,49 L-2,50 L-7,52 L-22,53 L-22,47 L-21,50 L-19,50 L-19,40 L-12,30 L-7,25 L-7,22 L-5,21 L-4,12 L-6,12 L-6,10 L-4,10 L-3,4 Z " fill="#C6A4A2" transform="translate(291,209)"/>
<path d="M0,0 L4,2 L8,10 L14,11 L14,13 L17,12 L21,20 L24,21 L36,22 L36,16 L40,16 L40,27 L49,27 L49,0 L51,0 L51,27 L84,27 L84,15 L88,14 L88,12 L85,11 L85,4 L87,4 L87,0 L91,1 L91,11 L93,11 L94,4 L99,3 L100,7 L97,10 L96,11 L102,11 L102,4 L106,5 L107,8 L104,11 L102,15 L86,16 L87,24 L89,22 L94,22 L94,24 L98,25 L99,26 L120,25 L123,24 L123,27 L139,27 L139,15 L140,5 L141,5 L141,27 L145,26 L156,26 L159,27 L176,27 L181,24 L192,25 L197,28 L197,36 L201,38 L205,43 L209,49 L209,52 L211,52 L212,54 L213,64 L213,74 L211,81 L206,87 L204,87 L204,89 L202,89 L201,98 L199,103 L199,112 L202,114 L202,119 L204,120 L201,126 L-307,126 L-304,124 L-315,120 L-312,119 L-312,114 L-308,112 L-308,105 L-313,93 L-314,89 L-316,89 L-317,86 L-317,78 L-319,78 L-321,71 L-321,56 L-317,49 L-315,49 L-313,45 L-308,39 L-301,33 L-299,33 L-299,31 L-297,31 L-297,29 L-289,24 L-283,21 L-280,21 L-280,19 L-274,18 L-267,20 L-267,24 L-265,24 L-264,26 L-263,83 L-263,105 L-249,104 L-216,104 L-205,105 L-202,102 L-201,97 L-204,96 L-200,95 L-197,94 L-197,77 L-195,70 L-193,65 L-192,55 L-191,25 L-189,18 L-190,19 L-194,18 L-192,14 L-189,14 L-189,12 L-180,9 L-173,7 L-169,6 L-166,8 L-139,10 L-139,12 L-136,11 L-136,42 L-136,44 L-136,56 L-147,57 L-147,52 L-149,52 L-149,56 L-160,57 L-161,56 L-161,48 L-160,47 L-162,46 L-163,42 L-167,40 L-170,25 L-171,24 L-173,32 L-174,35 L-176,35 L-175,39 L-179,41 L-179,46 L-163,46 L-163,48 L-181,48 L-181,64 L-178,66 L-182,66 L-182,118 L-75,118 L-75,97 L-71,93 L-64,94 L-62,96 L-62,118 L81,118 L81,106 L90,106 L89,119 L93,119 L93,106 L102,106 L102,118 L105,118 L105,106 L113,105 L114,106 L114,118 L188,118 L187,103 L187,78 L190,77 L190,68 L188,69 L188,66 L186,66 L185,64 L184,65 L160,66 L160,64 L158,64 L158,68 L151,68 L151,64 L149,64 L148,68 L141,68 L141,64 L139,64 L139,68 L131,68 L131,64 L129,64 L129,68 L116,68 L116,55 L103,55 L103,54 L116,52 L116,44 L114,45 L113,50 L106,50 L104,47 L100,46 L99,42 L105,42 L105,39 L99,40 L98,37 L96,41 L92,39 L92,42 L96,42 L96,46 L92,47 L91,50 L82,50 L81,46 L79,46 L79,51 L76,52 L76,54 L93,54 L93,55 L79,55 L79,68 L54,68 L54,64 L52,64 L52,68 L44,68 L44,64 L42,64 L42,68 L35,68 L33,66 L32,67 L21,66 L19,65 L19,63 L21,63 L20,58 L15,55 L9,60 L8,62 L5,63 L3,65 L0,64 L1,45 L-3,45 L-3,51 L-12,51 L-12,44 L-16,44 L-16,57 L-26,56 L-28,56 L-39,56 L-39,36 L-41,36 L-42,29 L-46,31 L-47,30 L-47,14 L-45,12 L-34,12 L-18,15 L-16,12 L-16,43 L1,43 L2,23 L3,18 L-1,18 L-1,12 L-3,11 L-3,5 L0,5 Z " fill="#050202" transform="translate(360,257)"/>
<path d="M0,0 L5,5 L6,12 L6,20 L7,23 L7,25 L17,35 L19,38 L20,51 L22,51 L22,45 L23,45 L24,53 L24,57 L23,62 L23,78 L25,78 L26,73 L28,77 L28,84 L30,84 L30,104 L41,104 L42,101 L43,103 L53,105 L53,92 L57,92 L57,99 L66,99 L66,93 L70,93 L70,109 L69,113 L-114,113 L-112,112 L-112,96 L-114,95 L-94,96 L-94,94 L-110,94 L-110,89 L-107,86 L-107,83 L-105,83 L-103,72 L-101,70 L-97,88 L-94,90 L-93,88 L-93,94 L-90,95 L-91,96 L-91,104 L-80,104 L-80,100 L-78,100 L-78,105 L-74,104 L-67,104 L-68,92 L-69,90 L-67,90 L-68,67 L-64,66 L-66,62 L-66,59 L-63,59 L-62,48 L-61,46 L-61,36 L-60,32 L-58,32 L-55,53 L-54,56 L-54,68 L-56,69 L-59,68 L-61,72 L-62,87 L-54,86 L-54,81 L-53,81 L-53,86 L-51,86 L-51,77 L-50,77 L-50,91 L-63,92 L-62,98 L-55,98 L-54,93 L-50,93 L-50,104 L-39,104 L-39,99 L-37,99 L-37,103 L-30,102 L-31,98 L-31,89 L-29,84 L-28,73 L-26,73 L-26,79 L-23,78 L-22,73 L-21,57 L-24,56 L-23,54 L-7,54 L-1,52 L6,53 L8,54 L22,54 L13,53 L13,51 L6,51 L3,49 L-2,50 L-7,52 L-22,53 L-22,47 L-21,50 L-19,50 L-19,40 L-12,30 L-7,25 L-7,22 L-5,21 L-4,12 L-6,12 L-6,10 L-4,10 L-3,4 Z " fill="#EFEFE9" transform="translate(291,209)"/>
<path d="M0,0 L1,0 L3,9 L4,11 L4,17 L6,19 L7,22 L12,26 L14,29 L14,55 L18,55 L18,52 L20,52 L20,55 L23,55 L24,52 L25,55 L28,55 L30,52 L31,55 L35,54 L39,54 L42,50 L42,57 L48,54 L49,53 L50,45 L52,49 L53,55 L58,57 L59,58 L60,72 L61,74 L67,74 L68,86 L41,86 L40,74 L39,86 L23,86 L23,83 L20,85 L-1,86 L-6,83 L-6,81 L-12,83 L-14,86 L-14,75 L2,73 L4,69 L6,69 L5,64 L2,63 L2,70 L-5,71 L-5,69 L-1,66 L-1,63 L-6,63 L-7,70 L-9,70 L-9,63 L-11,62 L-9,62 L-10,60 L-13,59 L-13,63 L-15,63 L-14,70 L-12,71 L-12,73 L-15,74 L-16,86 L-49,86 L-49,59 L-51,59 L-51,86 L-60,86 L-60,58 L-57,48 L-53,47 L-53,41 L-58,41 L-58,52 L-59,52 L-62,36 L-60,35 L-55,23 L-53,19 L-52,26 L-49,30 L-47,40 L-49,40 L-47,50 L-47,56 L-43,56 L-42,47 L-40,50 L-40,54 L-38,54 L-39,45 L-41,43 L-34,41 L-32,35 L-31,35 L-30,40 L-23,42 L-24,46 L-24,53 L-21,53 L-20,51 L-19,42 L-17,40 L-16,52 L-14,55 L-11,56 L-14,53 L-14,30 L-10,23 L-5,21 L-5,19 L-7,18 L-3,17 L-3,11 L-5,11 L-5,9 L-2,8 Z " fill="#EDECE6" transform="translate(460,198)"/>
<path d="M0,0 L50,1 L51,13 L53,17 L53,36 L56,36 L56,38 L59,36 L70,36 L69,38 L63,39 L63,46 L69,45 L71,42 L71,48 L84,48 L84,46 L88,47 L91,48 L91,46 L111,46 L110,40 L105,40 L104,42 L102,42 L101,45 L101,39 L94,39 L94,45 L91,45 L91,39 L84,39 L84,45 L82,42 L81,37 L79,37 L79,10 L83,10 L83,16 L81,16 L80,19 L82,19 L83,35 L84,36 L91,34 L102,35 L102,33 L118,36 L122,39 L115,40 L116,45 L122,46 L122,49 L31,49 L33,45 L33,42 L34,35 L37,31 L39,31 L38,6 L36,5 L36,3 L31,4 L23,4 L22,25 L21,27 L19,27 L19,32 L31,32 L31,35 L27,36 L26,43 L24,44 L24,36 L18,36 L18,5 L11,6 L11,32 L17,34 L17,36 L5,36 L4,38 L3,6 L0,6 L-1,22 L-6,23 L-11,26 L-15,25 L-22,27 L-24,29 L-25,50 L-132,50 L-131,2 L-130,2 L-130,15 L-128,15 L-128,13 L-124,13 L-124,27 L-128,27 L-127,32 L-129,34 L-129,47 L-108,48 L-108,44 L-101,45 L-100,36 L-99,36 L-99,44 L-95,43 L-95,33 L-89,32 L-89,6 L-95,6 L-96,34 L-102,36 L-107,34 L-107,33 L-100,33 L-101,6 L-107,6 L-108,25 L-110,29 L-111,27 L-113,35 L-117,39 L-117,35 L-123,34 L-124,30 L-118,29 L-117,5 L-125,5 L-124,1 L-76,1 L-76,3 L-74,5 L-82,5 L-82,33 L-80,33 L-80,36 L-75,36 L-74,39 L-72,39 L-71,34 L-68,37 L-70,48 L-57,48 L-52,47 L-53,45 L-48,45 L-48,36 L-55,36 L-55,39 L-57,39 L-57,44 L-58,44 L-59,36 L-69,34 L-70,32 L-73,33 L-73,9 L-70,12 L-70,15 L-66,16 L-66,32 L-58,32 L-58,5 L-55,5 L-54,35 L-53,33 L-48,33 L-47,34 L-47,40 L-43,39 L-43,37 L-40,37 L-40,39 L-36,39 L-35,33 L-34,5 L-40,5 L-40,4 L-30,3 L-29,5 L-28,19 L-23,19 L-22,12 L-20,16 L-14,16 L-14,19 L-7,20 L-8,5 L-14,4 L-17,1 Z M-3,20 Z " fill="#F5F6EF" transform="translate(310,325)"/>
<path d="M0,0 L37,0 L39,1 L53,2 L52,6 L40,7 L40,12 L42,13 L40,14 L37,38 L35,41 L34,27 L34,2 L32,2 L32,54 L30,80 L-3,81 L-17,81 L-17,2 L-4,1 Z " fill="#F0EFEA" transform="translate(114,281)"/>
<path d="M0,0 L508,0 L509,1 L509,6 L508,7 L1,7 L-2,5 L-1,1 Z " fill="#EFF1EB" transform="translate(53,383)"/>
<path d="M0,0 L81,0 L80,3 L80,43 L6,43 L5,31 L-27,30 L-27,29 L-17,29 L-18,4 L-27,3 L-27,1 L-6,1 L-6,3 L-15,4 L-15,27 L-5,27 L-5,4 L-4,4 L-4,27 L5,27 L5,3 L-3,3 Z " fill="#F2EFEE" transform="translate(468,332)"/>
<path d="M0,0 L336,0 L338,2 L337,7 L336,8 L159,8 L-1,7 L-2,2 Z " fill="#F0E8E3" transform="translate(152,397)"/>
<path d="M0,0 L80,0 L78,1 L78,3 L74,3 L74,9 L77,9 L77,11 L75,12 L74,24 L71,26 L66,25 L67,20 L71,20 L72,11 L65,11 L66,27 L75,28 L74,31 L67,31 L63,29 L55,28 L52,26 L52,28 L41,28 L33,30 L32,28 L32,12 L30,12 L31,8 L32,8 L33,3 L29,3 L29,30 L31,30 L33,35 L34,32 L41,32 L41,38 L44,38 L44,32 L51,32 L52,35 L54,35 L55,32 L60,32 L61,33 L61,39 L44,40 L41,39 L41,41 L37,40 L34,39 L34,41 L21,41 L20,38 L19,39 L13,39 L13,32 L19,30 L9,30 L6,31 L6,29 L3,29 L2,10 L0,6 Z " fill="#F3F3F0" transform="translate(360,332)"/>
<path d="M0,0 L2,0 L5,21 L6,24 L6,36 L4,37 L1,36 L-1,40 L-2,55 L6,54 L6,49 L7,49 L7,54 L9,54 L9,45 L10,45 L10,59 L-3,60 L-2,66 L5,66 L6,61 L10,61 L10,72 L21,72 L21,67 L23,67 L23,71 L30,70 L31,61 L51,62 L55,66 L54,68 L52,68 L53,76 L60,77 L62,79 L89,80 L89,81 L-54,81 L-52,80 L-52,64 L-54,63 L-34,64 L-34,62 L-50,62 L-50,57 L-47,54 L-47,51 L-45,51 L-43,40 L-41,38 L-37,56 L-34,58 L-33,56 L-33,62 L-30,63 L-31,64 L-31,72 L-20,72 L-20,68 L-18,68 L-18,73 L-14,72 L-7,72 L-8,60 L-9,58 L-7,58 L-8,35 L-4,34 L-6,30 L-6,27 L-3,27 L-2,16 L-1,14 L-1,4 Z M51,61 Z " fill="#F1F4ED" transform="translate(231,241)"/>
<path d="M0,0 L11,0 L17,2 L18,9 L20,10 L20,94 L18,94 L14,79 L9,61 L6,49 L3,39 L-2,20 L-6,11 L-8,10 L-7,19 L-3,29 L5,57 L9,73 L8,78 L6,78 L5,84 L3,91 L-9,91 L-9,2 L-1,1 Z " fill="#EAEDE4" transform="translate(345,161)"/>
<path d="M0,0 L14,0 L11,1 L12,6 L18,6 L18,1 L24,1 L24,2 L19,2 L19,7 L28,6 L30,3 L30,6 L40,7 L41,4 L41,7 L47,7 L47,2 L43,3 L43,0 L49,0 L50,8 L55,8 L56,13 L54,13 L54,43 L53,53 L51,58 L49,65 L48,82 L46,82 L45,84 L42,84 L44,85 L44,90 L41,91 L40,94 L29,93 L29,77 L30,66 L31,14 L33,14 L34,39 L35,50 L38,26 L39,24 L39,19 L51,17 L52,14 L38,14 L36,13 L-1,13 L-5,14 L-18,14 L-18,71 L-19,71 L-20,10 L-19,7 L-15,6 L-14,1 L-8,1 L-12,2 L-12,7 L-9,7 L-9,4 L-7,4 L-7,7 L-5,6 L-4,1 L-3,1 L-3,7 L-1,7 L-1,1 Z " fill="#A60409" transform="translate(115,269)"/>
<path d="M0,0 L2,1 L2,4 L8,3 L8,6 L2,6 L4,10 L7,11 L8,9 L9,13 L16,14 L16,9 L19,8 L20,17 L15,18 L19,19 L19,32 L23,32 L24,29 L24,32 L32,32 L32,28 L34,28 L34,32 L42,32 L42,28 L44,28 L44,32 L51,31 L52,28 L54,28 L54,32 L61,32 L61,28 L63,28 L63,30 L87,28 L89,27 L89,30 L91,30 L91,36 L6,37 L-25,37 L-94,36 L-94,30 L-85,28 L-78,28 L-71,30 L-65,30 L-63,28 L-62,31 L-55,32 L-55,28 L-53,28 L-53,32 L-45,32 L-45,28 L-43,28 L-43,32 L-34,32 L-33,28 L-33,32 L-25,32 L-24,28 L-24,32 L-18,32 L-18,19 L-21,18 L-21,16 L-19,15 L-18,10 L-16,10 L-15,13 L-6,13 L-3,10 L-1,10 L-1,6 L-5,6 L-5,3 L-1,4 Z " fill="#E2DCDC" transform="translate(457,293)"/>
<path d="M0,0 L1,0 L2,12 L6,10 L10,11 L8,16 L17,16 L17,18 L20,16 L27,16 L28,14 L29,17 L28,19 L25,20 L8,20 L9,22 L14,23 L23,23 L24,26 L11,27 L8,26 L8,30 L22,30 L26,32 L26,33 L8,34 L8,36 L27,36 L27,39 L13,39 L13,41 L28,40 L28,45 L9,45 L9,48 L28,48 L27,51 L14,52 L28,53 L28,66 L-4,67 L-18,67 L-18,52 L-17,52 L-16,58 L-8,60 L-8,62 L-10,62 L-10,64 L-6,64 L-7,58 L-6,56 L-10,56 L-11,58 L-13,53 L-11,53 L-12,43 L-15,43 L-15,41 L-6,40 L-6,37 L-16,37 L-15,35 L-12,34 L-10,32 L-10,34 L-3,34 L-3,41 L-4,43 L-10,43 L-10,46 L-5,46 L-5,44 L-3,44 L-1,48 Z " fill="#EDEFE8" transform="translate(115,295)"/>
<path d="M0,0 L508,0 L509,1 L509,6 L508,7 L401,7 L401,6 L475,5 L475,2 L79,2 L68,3 L67,5 L125,5 L223,6 L223,7 L1,7 L-2,5 L-1,1 Z " fill="#F0E4E0" transform="translate(53,383)"/>
<path d="M0,0 L15,0 L18,7 L22,20 L23,21 L30,0 L45,0 L45,40 L35,40 L34,18 L27,40 L18,40 L11,18 L10,40 L0,40 Z " fill="#E5E5DD" transform="translate(12,14)"/>
<path d="M0,0 L33,0 L33,2 L35,2 L35,36 L33,36 L33,38 L29,39 L28,33 L22,34 L21,31 L21,4 L18,4 L18,31 L10,31 L9,15 L6,14 L4,9 L4,31 L7,30 L8,32 L17,34 L19,38 L21,38 L21,35 L28,35 L28,44 L25,46 L19,48 L9,48 L6,47 L6,39 L7,35 L5,34 L4,38 L1,39 L1,35 L-4,35 L-4,32 L-6,32 L-6,4 L0,2 Z " fill="#EBE7E1" transform="translate(234,326)"/>
<path d="M0,0 L5,0 L6,1 L6,13 L52,13 L52,14 L42,15 L16,15 L17,19 L45,19 L69,20 L69,21 L-144,21 L-144,20 L-92,19 L-91,17 L-100,16 L-100,15 L-94,14 L-94,13 L-27,13 L-27,1 L-18,1 L-19,14 L-15,14 L-15,1 L-6,1 L-6,13 L-3,13 L-3,1 Z " fill="#040101" transform="translate(468,362)"/>
<path d="M0,0 L5,5 L6,12 L6,20 L7,23 L7,25 L17,35 L19,38 L20,51 L22,51 L22,45 L23,45 L24,53 L24,57 L21,72 L20,74 L14,74 L11,71 L6,70 L6,59 L8,59 L7,55 L1,55 L4,53 L8,54 L22,54 L13,53 L13,51 L6,51 L3,49 L-2,50 L-7,52 L-22,53 L-22,47 L-21,50 L-19,50 L-19,40 L-12,30 L-7,25 L-7,22 L-5,21 L-4,12 L-6,12 L-6,10 L-4,10 L-3,4 Z " fill="#EFF4EF" transform="translate(291,209)"/>
<path d="M0,0 L2,0 L2,2 L4,2 L4,0 L6,0 L8,3 L23,4 L31,6 L30,0 L34,1 L34,17 L32,23 L29,23 L29,17 L27,17 L27,28 L25,33 L25,42 L26,47 L18,47 L18,43 L16,43 L16,48 L5,48 L5,37 L1,37 L1,42 L0,43 L-7,43 L-8,42 L-8,36 L-11,35 L5,35 L4,30 L-7,31 L-7,16 L-4,12 L0,12 Z " fill="#090404" transform="translate(236,265)"/>
<path d="M0,0 L22,0 L30,3 L36,10 L37,12 L37,26 L34,33 L28,38 L22,40 L0,40 Z " fill="#E5E6DE" transform="translate(201,14)"/>
<path d="M0,0 L22,0 L30,3 L36,10 L37,12 L37,26 L34,33 L28,38 L22,40 L0,40 Z " fill="#E5E6DE" transform="translate(103,14)"/>
<path d="M0,0 L18,0 L19,12 L21,16 L21,35 L24,35 L24,37 L27,35 L38,35 L37,37 L31,38 L31,45 L37,44 L39,41 L39,47 L52,47 L52,45 L56,46 L59,47 L59,45 L79,45 L78,39 L73,39 L72,41 L70,41 L69,44 L69,38 L62,38 L62,44 L59,44 L59,38 L52,38 L52,44 L50,41 L49,36 L47,36 L47,9 L51,9 L51,15 L49,15 L48,18 L50,18 L51,34 L52,35 L59,33 L70,34 L70,32 L86,35 L90,38 L83,39 L84,44 L90,45 L90,48 L-1,48 L1,44 L1,41 L2,34 L5,30 L7,30 L6,5 L4,4 L4,2 Z " fill="#EDEFE5" transform="translate(342,326)"/>
<path d="M0,0 L13,0 L18,1 L18,18 L22,18 L22,15 L24,15 L24,18 L27,18 L28,15 L29,18 L32,18 L34,15 L35,18 L39,17 L43,17 L46,13 L46,20 L52,17 L53,16 L54,8 L56,12 L57,18 L62,20 L63,21 L64,35 L65,37 L71,37 L72,49 L45,49 L44,37 L43,37 L42,24 L39,26 L37,30 L32,30 L32,34 L29,33 L28,27 L27,31 L23,33 L22,36 L9,36 L9,33 L14,33 L14,27 L18,26 L19,30 L17,32 L21,33 L21,23 L23,23 L22,20 L15,19 L14,15 L17,14 L17,9 L7,8 L9,10 L8,11 L2,11 L-2,10 L-2,8 L-8,9 L-9,2 L-4,1 Z " fill="#F4EBE6" transform="translate(456,235)"/>
<path d="M0,0 L8,0 L8,3 L15,4 L15,28 L14,29 L8,29 L9,33 L15,33 L16,37 L19,32 L20,17 L21,17 L22,26 L23,24 L24,5 L25,4 L31,4 L32,5 L32,32 L27,33 L31,34 L36,33 L36,5 L37,4 L43,4 L44,5 L44,31 L43,32 L37,32 L37,42 L33,43 L32,42 L31,44 L24,43 L24,47 L3,47 L2,46 L2,33 L4,31 L4,26 L7,25 L7,15 L6,12 L4,12 L4,14 L2,14 L1,43 L0,43 Z " fill="#E8EAE2" transform="translate(178,326)"/>
<path d="M0,0 L5,1 L6,2 L6,9 L4,10 L-140,10 L-142,8 L-141,3 L-140,2 L-1,1 Z " fill="#F0F5ED" transform="translate(384,411)"/>
<path d="M0,0 L1,0 L2,7 L5,11 L7,21 L5,21 L7,31 L7,37 L11,37 L12,28 L14,31 L14,35 L16,35 L16,28 L17,28 L17,36 L12,37 L12,40 L17,42 L18,42 L25,43 L27,46 L27,54 L29,54 L27,60 L31,61 L30,65 L7,65 L6,66 L38,66 L38,67 L5,67 L5,40 L3,40 L3,67 L-6,67 L-6,39 L-3,29 L1,28 L1,22 L-4,22 L-4,33 L-5,33 L-8,17 L-6,16 L-1,4 Z M13,41 Z M12,42 Z " fill="#E0C6C3" transform="translate(406,217)"/>
<path d="M0,0 L26,0 L32,4 L34,7 L34,18 L29,24 L27,24 L35,36 L37,40 L25,40 L18,30 L17,26 L10,26 L10,40 L0,40 Z " fill="#E6E9E1" transform="translate(145,14)"/>
<path d="M0,0 L12,0 L28,3 L30,0 L30,29 L28,29 L28,32 L30,32 L30,45 L20,44 L18,44 L7,44 L7,24 L5,24 L4,17 L0,19 L-1,18 L-1,2 Z " fill="#070303" transform="translate(314,269)"/>
<path d="M0,0 L4,1 L5,31 L9,30 L17,31 L17,29 L10,27 L10,1 L11,0 L18,0 L18,31 L24,31 L25,38 L26,31 L27,31 L27,40 L31,41 L30,44 L14,45 L-12,45 L-13,23 L-16,20 L-12,20 L-7,18 L-3,16 L-1,17 L-1,1 Z M-3,15 Z " fill="#EEEFE7" transform="translate(310,330)"/>
<path d="M0,0 L81,0 L80,3 L79,42 L53,42 L53,37 L55,38 L59,37 L59,30 L60,29 L71,29 L71,32 L63,32 L63,37 L62,40 L64,39 L71,39 L71,33 L72,37 L74,37 L74,32 L77,28 L76,27 L76,3 L60,3 L60,26 L58,23 L58,6 L59,3 L51,2 L50,3 L43,4 L41,6 L40,4 L33,4 L32,10 L31,10 L31,3 L23,4 L22,9 L21,9 L21,3 L13,3 L13,21 L12,28 L21,27 L20,29 L8,32 L7,42 L6,42 L5,31 L-27,30 L-27,29 L-17,29 L-18,4 L-27,3 L-27,1 L-6,1 L-6,3 L-15,4 L-15,27 L-5,27 L-5,4 L-4,4 L-4,27 L5,27 L5,3 L-3,3 Z " fill="#F3F7EF" transform="translate(468,332)"/>
<path d="M0,0 L8,2 L8,22 L9,2 L25,2 L26,26 L26,29 L24,31 L23,36 L21,36 L20,38 L11,39 L10,35 L12,31 L20,31 L20,28 L9,29 L9,36 L4,37 L3,40 L3,36 L0,36 L-1,38 L-12,39 L-18,38 L-19,40 L-20,36 L-18,32 L-17,31 L-11,31 L-10,36 L-8,36 L-8,31 L1,31 L4,31 L3,3 L0,2 L0,26 L-2,27 L-8,26 L-8,10 L-8,8 L-8,2 L-1,1 Z " fill="#F0F4EC" transform="translate(519,333)"/>
<path d="M0,0 L7,1 L9,3 L9,25 L85,25 L90,28 L88,32 L23,33 L21,32 L21,30 L16,30 L16,32 L-6,32 L-5,29 L-4,4 Z " fill="#040202" transform="translate(289,350)"/>
<path d="M0,0 L13,0 L18,12 L27,38 L27,40 L16,40 L14,31 L0,32 L-3,40 L-13,40 L-11,31 Z " fill="#E5E7DF" transform="translate(73,14)"/>
<path d="M0,0 L12,0 L12,41 L11,61 L9,63 L-11,63 L-11,57 L8,57 L8,55 L-11,55 L-11,49 L8,49 L8,47 L-11,47 L-11,45 L8,45 L8,43 L-11,43 L-11,41 L8,41 L8,39 L-11,39 L-11,28 L7,28 L8,26 L4,27 L-11,27 L-11,24 L8,24 L8,19 L-5,19 L-5,18 L6,17 L-10,16 L-10,11 L7,10 L8,5 L-10,5 L-6,4 L-6,2 L-8,1 Z " fill="#F1E4E4" transform="translate(390,165)"/>
<path d="M0,0 L107,0 L106,6 L125,6 L129,4 L132,5 L132,7 L134,8 L13,8 L2,7 L2,3 Z " fill="#A0050B" transform="translate(178,375)"/>
<path d="M0,0 L3,1 L4,6 L3,9 L8,11 L16,15 L17,12 L17,18 L22,18 L22,12 L25,12 L26,17 L25,19 L29,19 L28,22 L18,23 L19,25 L26,26 L27,31 L25,28 L26,32 L28,39 L25,38 L26,36 L19,36 L18,35 L17,28 L12,29 L11,36 L-6,37 L-7,36 L-7,28 L-5,28 L-6,24 L-8,23 L-27,22 L-27,19 L-23,19 L-24,14 L-21,13 L-21,18 L-16,19 L-16,9 L-13,10 L-13,15 L-3,10 L-2,9 Z M-8,21 Z " fill="#EDF1EA" transform="translate(290,281)"/>
<path d="M0,0 L48,0 L48,2 L50,4 L42,4 L42,27 L41,33 L43,33 L43,40 L38,43 L36,43 L36,35 L31,35 L31,42 L30,42 L29,32 L35,31 L35,5 L29,5 L28,33 L22,35 L17,33 L17,32 L24,32 L23,5 L17,5 L16,24 L14,28 L13,26 L11,34 L7,38 L7,34 L1,33 L0,29 L6,28 L7,4 L-1,4 Z " fill="#F5F7F0" transform="translate(186,326)"/>
<path d="M0,0 L2,0 L8,19 L15,45 L17,56 L16,58 L14,58 L13,64 L11,71 L0,71 Z " fill="#ECF3EA" transform="translate(337,181)"/>
<path d="M0,0 L1,0 L2,12 L6,10 L10,11 L8,16 L17,16 L17,18 L20,16 L27,16 L28,14 L29,17 L28,19 L25,20 L8,20 L9,22 L14,23 L23,23 L24,26 L11,27 L8,26 L8,30 L22,30 L26,32 L26,33 L8,34 L8,36 L27,36 L27,39 L13,39 L13,41 L28,40 L28,45 L9,45 L9,48 L24,48 L24,50 L10,51 L7,51 L6,50 L2,51 L0,55 Z " fill="#F0F3F0" transform="translate(115,295)"/>
<path d="M0,0 L16,0 L22,4 L25,8 L25,21 L22,26 L18,29 L15,30 L0,30 Z " fill="#E5E2DC" transform="translate(368,126)"/>
<path d="M0,0 L124,0 L123,4 L120,5 L63,6 L-2,6 Z " fill="#F0F2ED" transform="translate(153,398)"/>
<path d="M0,0 L2,3 L3,15 L4,18 L3,22 L5,22 L4,27 L7,28 L6,34 L10,34 L9,53 L8,59 L3,60 L-4,60 L-9,59 L-9,33 L-8,28 L-5,28 L-4,21 L-2,13 L-1,4 Z " fill="#F8F2EB" transform="translate(353,241)"/>
<path d="M0,0 L1,0 L1,13 L3,13 L3,11 L7,11 L7,25 L3,25 L4,30 L2,32 L2,45 L23,46 L23,42 L30,43 L31,34 L32,34 L32,42 L36,41 L36,34 L43,34 L43,42 L49,39 L50,32 L48,32 L48,26 L49,26 L49,31 L51,31 L51,34 L56,34 L57,37 L59,37 L60,32 L63,35 L61,46 L105,47 L105,35 L106,35 L106,48 L-1,48 Z " fill="#EEE5E0" transform="translate(179,327)"/>
<path d="M0,0 L12,0 L29,1 L34,2 L38,4 L39,5 L39,20 L32,19 L32,16 L26,17 L24,17 L23,19 L18,19 L16,3 L13,4 L12,33 L10,39 L6,39 L4,34 L5,3 L3,3 L3,1 Z " fill="#E9E5DD" transform="translate(264,325)"/>
<path d="M0,0 L1,0 L2,10 L11,11 L10,16 L9,17 L15,19 L16,24 L16,36 L-14,36 L-14,24 L-12,18 L-8,17 L-9,12 L-7,11 L0,11 Z " fill="#DDCBC7" transform="translate(190,183)"/>
<path d="M0,0 L91,0 L89,2 L97,5 L97,6 L9,6 L-39,5 L-39,3 L-13,3 L-10,2 L-8,3 L-8,1 Z " fill="#F1F0EB" transform="translate(373,398)"/>
<path d="M0,0 L1,0 L2,5 L9,7 L8,11 L8,18 L15,18 L16,26 L16,50 L-16,50 L-15,48 L8,48 L9,45 L4,45 L6,40 L7,38 L5,38 L4,30 L3,27 L-4,26 L-4,28 L-6,27 L-10,24 L-10,21 L-5,20 L-7,10 L-9,8 L-2,6 Z M-9,25 Z M-10,26 Z " fill="#EDF3EC" transform="translate(428,233)"/>
<path d="M0,0 L67,0 L67,1 L62,2 L62,5 L60,6 L110,7 L110,8 L-50,8 L-50,7 L2,6 L3,4 L-6,3 L-6,2 L0,1 Z " fill="#971B1F" transform="translate(374,375)"/>
<path d="M0,0 L1,0 L2,15 L3,18 L-1,26 L-3,26 L0,36 L1,31 L6,31 L6,37 L2,38 L1,45 L-1,48 L-2,42 L-4,42 L-4,44 L-23,45 L-23,30 L-22,25 L-22,20 L-2,19 L-1,18 Z " fill="#923233" transform="translate(401,208)"/>
<path d="M0,0 L6,0 L10,2 L14,10 L14,21 L11,28 L8,31 L-2,31 L-6,27 L-8,21 L-8,10 L-5,4 Z " fill="#E4DCD6" transform="translate(452,75)"/>
<path d="M0,0 L1,0 L1,13 L5,13 L6,10 L6,13 L14,13 L14,9 L16,9 L16,13 L24,13 L24,9 L26,9 L26,13 L33,12 L34,9 L36,9 L36,13 L43,13 L43,9 L45,9 L45,11 L69,9 L71,8 L71,11 L73,11 L73,17 L-40,17 L-40,15 L-35,15 L-35,2 L-33,3 L-33,15 L-24,15 L-24,4 L-22,4 L-21,13 L-1,15 L2,16 L2,14 L0,14 Z " fill="#F6F5EF" transform="translate(475,312)"/>
<path d="M0,0 L14,0 L15,26 L12,26 L13,36 L10,36 L4,36 L4,29 L10,27 L0,27 L-3,28 L-3,26 L-6,26 L-6,2 L-2,1 L-1,21 Z " fill="#1F0F0F" transform="translate(369,335)"/>
<path d="M0,0 L10,0 L17,1 L14,3 L6,2 L6,17 L12,16 L13,9 L14,9 L15,16 L17,17 L17,5 L18,5 L19,17 L25,17 L25,3 L26,0 L30,0 L30,11 L29,17 L31,17 L32,12 L34,13 L35,21 L41,23 L41,24 L-13,24 L-12,22 L-5,21 L-4,12 L-2,12 L-1,14 Z " fill="#F0E1E0" transform="translate(118,242)"/>
<path d="M0,0 L4,1 L4,3 L7,4 L7,29 L3,33 L1,42 L0,42 L0,34 L-5,34 L-1,33 L-1,30 L-13,30 L-13,25 L-11,25 L-10,1 L-1,1 Z " fill="#F3F3EB" transform="translate(342,327)"/>
<path d="M0,0 L7,0 L8,20 L9,26 L12,25 L13,27 L22,29 L24,33 L26,33 L26,30 L33,30 L33,39 L30,41 L24,43 L14,43 L11,42 L11,34 L12,30 L10,29 L9,33 L6,34 L6,30 L1,30 L1,27 L-1,27 L-1,4 Z " fill="#F0F3EB" transform="translate(229,331)"/>
<path d="M0,0 L1,0 L3,9 L4,11 L4,17 L6,19 L7,22 L12,26 L14,29 L14,38 L-4,38 L-10,39 L-13,38 L-13,27 L-8,22 L-5,21 L-5,19 L-7,18 L-3,17 L-3,11 L-5,11 L-5,9 L-2,8 Z " fill="#ECF0EA" transform="translate(460,198)"/>
<path d="M0,0 L4,0 L4,32 L0,32 L-1,30 L-4,32 L-13,32 L-18,26 L-18,14 L-14,9 L-12,8 L-3,9 L-1,11 Z " fill="#E5E5DE" transform="translate(268,74)"/>
<path d="M0,0 L1,0 L2,30 L0,56 L-1,56 L-1,43 L-15,43 L-16,41 L-2,41 L-2,39 L-20,38 L-20,35 L-1,35 L-2,31 L-16,31 L-16,29 L-2,29 L-2,26 L-21,26 L-21,24 L-4,22 L-7,21 L-21,20 L-21,16 L-5,16 L-6,14 L-17,14 L-21,12 L-21,10 L-1,9 L-2,6 L-8,7 L-12,8 L-12,6 L-21,6 L-21,3 L-1,2 Z " fill="#C8C9CB" transform="translate(144,305)"/>
<path d="M0,0 L336,0 L338,2 L337,7 L336,8 L326,8 L315,6 L308,3 L308,2 L2,2 L0,3 L0,6 L-2,6 L-1,1 Z " fill="#F0E1D8" transform="translate(152,397)"/>
<path d="M0,0 L7,0 L15,22 L23,1 L24,0 L30,0 L30,30 L25,30 L24,12 L17,30 L13,30 L5,9 L4,30 L0,30 Z " fill="#E4DBD5" transform="translate(305,126)"/>
<path d="M0,0 L3,1 L4,1 L11,2 L13,5 L13,13 L15,13 L13,19 L17,20 L16,24 L-7,24 L-8,23 L-8,1 L-1,1 Z " fill="#ECF0EA" transform="translate(420,258)"/>
<path d="M0,0 L2,1 L2,8 L0,10 L0,8 L-183,8 L-183,6 L-117,5 L-1,5 Z " fill="#2F1817" transform="translate(549,324)"/>
<path d="M0,0 L2,1 L4,11 L5,14 L7,14 L8,12 L10,12 L10,5 L12,5 L13,2 L14,14 L16,17 L22,17 L23,29 L-3,29 L-3,4 L-2,1 Z " fill="#EAE6DF" transform="translate(505,255)"/>
<path d="M0,0 L17,0 L22,4 L22,14 L17,18 L15,19 L5,19 L5,30 L0,30 Z " fill="#E4DED7" transform="translate(151,76)"/>
<path d="M0,0 L4,0 L4,6 L2,6 L1,9 L3,9 L4,25 L5,26 L12,24 L23,25 L23,23 L39,26 L43,29 L36,30 L37,35 L43,36 L43,39 L-17,39 L-16,36 L-10,35 L-8,32 L-8,38 L5,38 L5,36 L9,37 L12,38 L12,36 L32,36 L31,30 L26,30 L25,32 L23,32 L22,35 L22,29 L15,29 L15,35 L12,35 L12,29 L5,29 L5,35 L3,32 L2,27 L0,27 Z " fill="#F8FAF7" transform="translate(389,335)"/>
<path d="M0,0 L11,0 L11,40 L0,40 Z " fill="#E4DED7" transform="translate(184,14)"/>
<path d="M0,0 L10,1 L10,17 L4,17 L4,24 L-9,27 L-10,25 L-10,9 L-12,9 L-11,5 L-9,1 Z " fill="#E4DDDD" transform="translate(402,335)"/>
<path d="M0,0 L12,0 L12,41 L10,41 L10,33 L-11,33 L-11,28 L7,28 L8,26 L4,27 L-11,27 L-11,24 L8,24 L8,19 L-5,19 L-5,18 L6,17 L-10,16 L-10,11 L7,10 L8,5 L-10,5 L-6,4 L-6,2 L-8,1 Z " fill="#D0B6B8" transform="translate(390,165)"/>
<path d="M0,0 L1,0 L1,59 L0,64 L-1,64 L-2,55 L-4,55 L-4,57 L-9,57 L-9,54 L-3,54 L-2,45 L-10,45 L-14,47 L-5,48 L-5,51 L-14,52 L-14,54 L-11,54 L-10,64 L-10,68 L-5,67 L-5,75 L-9,75 L-9,73 L-7,73 L-7,71 L-14,70 L-16,52 L-16,42 L-8,42 L-10,39 L-13,39 L-13,35 L-4,35 L-3,36 L-2,13 Z " fill="#6F6361" transform="translate(114,284)"/>
<path d="M0,0 L1,0 L1,17 L-1,20 L2,21 L2,22 L-11,23 L-38,22 L-63,22 L-64,17 L-51,16 L-35,16 L-28,15 L0,15 Z " fill="#BE0007" transform="translate(548,360)"/>
<path d="M0,0 L14,0 L11,1 L12,6 L18,6 L18,1 L24,1 L24,2 L19,2 L19,7 L28,6 L30,3 L30,6 L40,7 L41,4 L41,7 L47,7 L47,2 L43,3 L43,0 L49,0 L50,8 L54,8 L54,10 L0,11 L-20,12 L-19,7 L-15,6 L-14,1 L-8,1 L-12,2 L-12,7 L-9,7 L-9,4 L-7,4 L-7,7 L-5,6 L-4,1 L-3,1 L-3,7 L-1,7 L-1,1 Z " fill="#F3EDEA" transform="translate(115,269)"/>
<path d="M0,0 L5,5 L6,12 L6,20 L7,23 L7,25 L10,29 L9,32 L2,35 L-1,35 L-3,39 L-4,35 L-6,36 L-12,36 L-12,33 L-7,24 L-7,22 L-5,21 L-4,12 L-6,12 L-6,10 L-4,10 L-3,4 Z " fill="#F1F2EC" transform="translate(291,209)"/>
<path d="M0,0 L8,0 L10,0 L17,0 L17,11 L18,23 L16,25 L11,25 L10,24 L10,8 L8,8 L8,24 L6,25 L-1,25 Z " fill="#BBB0AE" transform="translate(481,335)"/>
<path d="M0,0 L4,1 L1,1 L1,4 L6,5 L6,18 L1,17 L-4,19 L-11,20 L-13,21 L-18,20 L-18,8 L-17,6 L-23,4 L-22,2 L-6,2 Z " fill="#F2F3F1" transform="translate(290,261)"/>
<path d="M0,0 L4,0 L4,7 L13,7 L13,1 L17,1 L17,17 L16,21 L-5,21 L-3,19 L-8,18 L-22,17 L-22,15 L-12,13 L-11,9 L-10,11 L0,13 Z " fill="#EBEEE6" transform="translate(344,301)"/>
<path d="M0,0 L7,0 L17,27 L17,30 L12,30 L10,22 L-3,22 L-5,30 L-10,30 L-9,24 Z " fill="#E5E1DB" transform="translate(348,126)"/>
<path d="M0,0 L7,0 L17,27 L17,30 L12,30 L10,22 L-3,22 L-5,30 L-10,30 L-9,24 Z " fill="#E5E1DB" transform="translate(131,76)"/>
<path d="M0,0 L1,4 L4,4 L5,6 L8,7 L8,36 L6,37 L6,35 L-3,36 L-6,40 L-6,34 L-5,27 L-3,21 L-4,18 L-6,18 L-4,11 L0,11 L0,8 L-4,8 L-3,3 Z " fill="#F8F6F5" transform="translate(104,284)"/>
<path d="M0,0 L11,0 L11,2 L16,2 L14,3 L14,7 L24,8 L24,15 L23,16 L5,16 L6,13 L8,12 L4,9 L2,9 L2,18 L23,19 L24,22 L3,23 L-2,25 L-3,12 L-3,2 L-1,3 Z " fill="#D9DCD8" transform="translate(118,283)"/>
<path d="M0,0 L21,0 L21,2 L12,3 L12,26 L22,26 L22,3 L23,3 L23,26 L32,26 L32,3 L33,3 L34,25 L35,3 L40,3 L40,20 L39,27 L48,26 L47,28 L35,31 L34,41 L33,41 L32,30 L0,29 L0,28 L10,28 L9,3 L0,2 Z " fill="#E5DED7" transform="translate(441,333)"/>
<path d="M0,0 L7,0 L14,2 L20,2 L22,0 L23,3 L30,4 L30,0 L32,0 L32,4 L40,4 L40,0 L42,0 L42,4 L51,4 L52,0 L52,4 L60,4 L61,8 L-9,8 L-9,2 Z " fill="#F9F5F2" transform="translate(372,321)"/>
<path d="M0,0 L37,0 L41,3 L36,4 L40,5 L40,10 L26,10 L22,9 L18,11 L12,10 L12,5 L11,4 L11,9 L5,10 L4,9 L4,4 L-7,4 L-8,10 L-12,10 L-14,10 L-14,7 L-16,7 L-16,10 L-19,10 L-19,5 L-21,3 L-18,2 L0,1 Z " fill="#F1EBD7" transform="translate(122,266)"/>
<path d="M0,0 L6,0 L12,5 L13,7 L13,14 L-4,14 L-1,19 L7,19 L11,19 L11,22 L8,24 L-2,24 L-7,20 L-9,17 L-9,8 L-5,2 Z " fill="#E3D9D4" transform="translate(284,82)"/>
<path d="M0,0 L38,0 L39,2 L43,3 L42,7 L-102,7 L-102,6 L6,5 L6,2 L1,2 Z " fill="#E4C9C3" transform="translate(346,414)"/>
<path d="M0,0 L14,0 L14,24 L13,25 L0,25 Z " fill="#130C0C" transform="translate(529,335)"/>
<path d="M0,0 L3,0 L2,8 L9,8 L10,0 L13,0 L12,8 L16,8 L16,11 L11,12 L10,18 L15,18 L15,22 L8,22 L7,30 L4,30 L5,22 L-2,22 L-2,28 L-3,30 L-6,30 L-5,22 L-8,22 L-8,18 L-4,17 L-2,11 L-7,11 L-7,9 L-1,9 Z " fill="#E0C4BF" transform="translate(226,126)"/>
<path d="M0,0 L6,0 L10,4 L9,9 L8,11 L6,11 L6,13 L1,13 L1,17 L3,17 L3,20 L1,20 L2,23 L10,25 L10,34 L-7,34 L-6,27 L-4,27 L-4,21 L-2,20 L-1,15 L-3,15 L-4,12 L-2,12 L-4,8 L-4,3 L-1,2 Z " fill="#B70007" transform="translate(81,328)"/>
<path d="M0,0 L2,0 L3,7 L2,9 L6,9 L6,0 L8,0 L8,9 L11,8 L12,2 L13,2 L14,8 L17,8 L18,0 L21,0 L23,14 L24,17 L-9,17 L-9,8 L-7,1 L-5,1 L-5,9 L0,9 Z " fill="#EDD9DA" transform="translate(126,222)"/>
<path d="M0,0 L2,0 L8,19 L10,26 L9,30 L7,24 L4,25 L4,33 L2,33 L1,56 L3,56 L3,58 L6,58 L6,60 L9,60 L10,56 L10,58 L12,58 L12,53 L15,51 L15,57 L12,60 L10,66 L10,70 L0,71 Z " fill="#F0F6ED" transform="translate(337,181)"/>
<path d="M0,0 L2,3 L5,18 L8,20 L9,18 L9,24 L12,25 L10,27 L9,31 L6,32 L6,41 L1,41 L1,38 L-3,37 L-3,41 L-6,41 L-5,36 L-3,29 L0,28 L-8,27 L-8,26 L8,26 L8,24 L-8,24 L-8,19 L-5,16 L-5,13 L-3,13 L-1,2 Z " fill="#F6F3EB" transform="translate(189,279)"/>
<path d="M0,0 L22,0 L22,2 L18,4 L14,4 L14,36 L12,42 L8,42 L7,37 L6,5 L0,3 Z " fill="#F6EDE8" transform="translate(180,220)"/>
<path d="M0,0 L9,0 L15,4 L13,8 L9,6 L0,6 L1,11 L12,15 L16,19 L16,26 L10,31 L-2,31 L-7,27 L-7,25 L-3,24 L0,26 L8,26 L10,25 L9,20 L-2,16 L-6,12 L-6,5 Z " fill="#E4DBD5" transform="translate(250,125)"/>
<path d="M0,0 L9,0 L15,4 L13,8 L9,6 L0,6 L1,11 L12,15 L16,19 L16,26 L10,31 L-2,31 L-7,27 L-7,25 L-3,24 L0,26 L8,26 L10,25 L9,20 L-2,16 L-6,12 L-6,5 Z " fill="#E4DBD5" transform="translate(104,75)"/>
<path d="M0,0 L1,2 L8,2 L8,9 L7,11 L1,11 L1,14 L6,14 L6,12 L8,12 L11,16 L11,24 L9,34 L7,35 L-7,35 L-7,20 L-6,20 L-5,26 L3,28 L3,30 L1,30 L1,32 L5,32 L4,26 L5,24 L1,24 L0,26 L-2,21 L0,21 L-1,11 L-4,11 L-4,9 L5,8 L5,5 L-5,5 L-4,3 L-1,2 Z " fill="#D9C9C3" transform="translate(104,327)"/>
<path d="M0,0 L7,0 L12,4 L12,24 L7,23 L5,24 L-3,24 L-6,21 L-6,14 L-1,10 L8,10 L6,5 L-1,6 L-5,6 L-5,3 Z " fill="#E5E3DD" transform="translate(351,82)"/>
<path d="M0,0 L55,0 L54,4 L71,4 L71,5 L-34,5 L-34,4 L1,4 Z " fill="#F2F7F4" transform="translate(474,384)"/>
<path d="M0,0 L6,0 L7,1 L7,27 L6,28 L0,28 L0,38 L-4,39 L-5,38 L-6,40 L-11,39 L-12,38 L-12,31 L-1,29 L-1,1 Z " fill="#D9D0CD" transform="translate(215,330)"/>
<path d="M0,0 L7,0 L7,31 L13,31 L12,39 L7,39 L7,32 L5,32 L5,39 L0,39 L-1,38 L-1,32 L0,31 L6,31 L6,29 L-1,27 L-1,1 Z " fill="#A1918D" transform="translate(321,330)"/>
<path d="M0,0 L1,0 L1,9 L6,11 L6,16 L-6,19 L-12,19 L-12,25 L55,25 L55,26 L-9,26 L-9,28 L-15,28 L-15,22 L-62,22 L-62,21 L-34,20 L-34,19 L-15,19 L-14,16 L-11,16 L-7,15 L-5,11 L-1,8 Z " fill="#903B3C" transform="translate(375,304)"/>
<path d="M0,0 L18,0 L18,4 L4,4 L5,10 L13,10 L19,15 L19,25 L14,30 L3,30 L-1,27 L1,23 L5,25 L12,25 L14,23 L14,16 L5,16 L1,17 L0,16 Z " fill="#E4E0DA" transform="translate(494,76)"/>
<path d="M0,0 L10,0 L15,5 L16,14 L13,19 L10,22 L0,22 Z " fill="#C4040B" transform="translate(212,23)"/>
<path d="M0,0 L10,0 L15,5 L16,14 L13,19 L10,22 L0,22 Z " fill="#C4040B" transform="translate(114,23)"/>
<path d="M0,0 L18,0 L25,2 L22,4 L21,18 L15,18 L14,16 L13,18 L9,17 L8,18 L2,18 L2,3 L10,3 L0,1 Z " fill="#842D2C" transform="translate(122,241)"/>
<path d="M0,0 L1,0 L1,19 L-2,19 L-4,23 L-10,25 L-13,24 L-13,26 L-6,27 L-7,30 L-13,30 L-15,31 L-15,22 L-14,12 L-13,10 L-13,5 L-1,3 Z " fill="#C76F69" transform="translate(167,283)"/>
<path d="M0,0 L4,2 L10,20 L14,36 L17,45 L21,62 L22,64 L22,70 L16,68 L15,60 L9,36 L3,16 L0,9 Z " fill="#201415" transform="translate(337,171)"/>
<path d="M0,0 L10,0 L15,5 L16,14 L13,19 L11,21 L7,22 L0,22 Z " fill="#C4040B" transform="translate(373,130)"/>
<path d="M0,0 L1,0 L2,8 L2,12 L-1,27 L-2,29 L-8,29 L-11,26 L-16,25 L-16,14 L-14,14 L-15,10 L-21,10 L-18,8 L-14,9 L0,9 L-9,8 L-9,7 L0,6 Z " fill="#F7F5F2" transform="translate(313,254)"/>
<path d="M0,0 L1,0 L1,84 L-1,84 L-5,69 L-10,51 L-13,37 L-11,37 L-10,35 L-7,47 L-7,50 L-1,49 Z " fill="#EAE6DC" transform="translate(364,171)"/>
<path d="M0,0 L8,0 L8,3 L15,4 L15,28 L8,28 L7,15 L6,12 L4,12 L4,14 L2,14 L1,43 L0,43 Z " fill="#DAC8C1" transform="translate(178,326)"/>
<path d="M0,0 L1,0 L1,48 L-6,48 L-9,35 L-8,25 L-7,19 L-3,19 L-3,11 L-1,11 Z " fill="#EAEFE6" transform="translate(363,173)"/>
<path d="M0,0 L7,0 L12,4 L13,6 L13,12 L6,21 L1,26 L13,27 L13,31 L-7,31 L-6,26 L3,17 L7,11 L7,5 L-1,6 L-5,8 L-6,4 Z " fill="#E4DFD9" transform="translate(476,75)"/>
<path d="M0,0 L7,0 L12,4 L13,6 L13,12 L6,21 L1,26 L13,27 L13,31 L-7,31 L-6,26 L3,17 L7,11 L7,5 L-1,6 L-5,8 L-6,4 Z " fill="#E4DFD9" transform="translate(428,75)"/>
<path d="M0,0 L3,1 L4,6 L3,9 L8,11 L16,15 L17,12 L17,18 L22,18 L22,12 L25,12 L26,17 L25,19 L29,19 L29,21 L14,21 L12,17 L2,13 L-2,14 L-11,19 L-11,21 L-27,21 L-27,19 L-23,19 L-24,14 L-21,13 L-21,18 L-16,19 L-16,9 L-13,10 L-13,15 L-3,10 L-2,9 Z " fill="#211011" transform="translate(290,281)"/>
<path d="M0,0 L16,2 L12,4 L9,5 L7,12 L6,16 L8,14 L9,12 L14,12 L13,16 L18,16 L17,6 L21,6 L22,2 L23,9 L34,9 L34,5 L36,5 L36,10 L44,10 L44,11 L26,13 L26,15 L33,15 L34,17 L2,17 L2,1 Z " fill="#F3F2EE" transform="translate(177,304)"/>
<path d="M0,0 L18,0 L18,1 L13,2 L13,5 L11,6 L61,7 L61,8 L-43,8 L-43,7 L-17,6 L-16,1 L0,1 Z " fill="#8F1D21" transform="translate(423,375)"/>
<path d="M0,0 L1,0 L2,15 L3,18 L-1,26 L-3,26 L-2,28 L-2,40 L-4,41 L-5,39 L-22,38 L-21,36 L-7,36 L-4,37 L-5,30 L-22,29 L-22,20 L-2,19 L-1,18 Z " fill="#A92022" transform="translate(401,208)"/>
<path d="M0,0 L1,0 L2,7 L5,11 L7,21 L5,21 L6,34 L4,34 L3,37 L0,37 L0,35 L-4,36 L-3,29 L1,28 L1,22 L-4,22 L-4,33 L-5,33 L-8,17 L-6,16 L-1,4 Z " fill="#EFE1D8" transform="translate(406,217)"/>
<path d="M0,0 L37,0 L39,1 L53,2 L52,6 L40,7 L40,12 L42,13 L40,14 L37,38 L35,41 L34,27 L34,2 L0,1 Z " fill="#E8DBD9" transform="translate(114,281)"/>
<path d="M0,0 L1,0 L1,5 L3,5 L3,8 L8,8 L9,11 L11,11 L12,6 L15,9 L13,20 L-7,21 L-13,20 L-14,15 L-12,15 L-12,8 L-5,8 L-5,16 L1,13 L2,6 L0,6 Z " fill="#EAEDE4" transform="translate(227,353)"/>
<path d="M0,0 L2,4 L3,10 L8,12 L9,13 L9,26 L8,26 L7,17 L5,17 L5,24 L3,24 L2,27 L-1,26 L-3,17 L-5,13 L-7,13 L-8,41 L-9,41 L-10,29 L-11,29 L-12,16 L-19,17 L-19,15 L-13,13 L-9,5 L-8,5 L-8,12 L-2,9 L-1,8 Z " fill="#EFE7DD" transform="translate(510,243)"/>
<path d="M0,0 L4,0 L5,17 L12,9 L18,9 L12,17 L12,21 L19,31 L19,32 L13,32 L7,23 L5,22 L4,32 L0,32 Z " fill="#E5E6E0" transform="translate(391,74)"/>
<path d="M0,0 L9,0 L9,1 L-5,3 L-5,5 L9,6 L9,11 L8,12 L-9,12 L-9,17 L8,17 L7,19 L9,20 L9,24 L-10,24 L-11,1 Z " fill="#E3C7C5" transform="translate(389,164)"/>
<path d="M0,0 L5,0 L5,22 L1,25 L-8,24 L-9,23 L-9,7 L-2,7 L-2,17 L-7,17 L-7,21 L-1,20 L0,8 L3,7 L3,5 L0,5 Z M0,25 L1,28 L-2,29 L-2,34 L-4,35 L-11,35 L-8,34 L-9,29 L-11,28 L0,27 Z " fill="#B10C10" transform="translate(434,336)"/>
<path d="M0,0 L8,2 L7,8 L7,27 L4,27 L3,3 L0,2 L0,26 L-2,27 L-8,26 L-8,10 L-8,8 L-8,2 L-1,1 Z " fill="#B1A3A3" transform="translate(519,333)"/>
<path d="M0,0 L5,1 L6,8 L6,12 L6,27 L-1,29 L-7,29 L-7,14 L-4,10 L0,10 Z " fill="#F0E5DA" transform="translate(236,267)"/>
<path d="M0,0 L23,0 L24,1 L30,1 L30,4 L40,5 L40,6 L-79,6 L-79,5 L4,5 L4,3 L-3,3 Z " fill="#F2FAF2" transform="translate(323,414)"/>
<path d="M0,0 L17,0 L17,6 L9,6 L8,25 L0,25 L-1,24 L-1,15 L0,12 L5,12 L5,10 L-1,10 L-1,1 Z " fill="#BAA8A7" transform="translate(415,335)"/>
<path d="M0,0 L2,1 L2,4 L8,3 L8,6 L2,6 L4,10 L7,11 L8,9 L9,13 L16,14 L16,9 L19,8 L20,17 L-20,17 L-18,10 L-16,10 L-15,13 L-6,13 L-3,10 L-1,10 L-1,6 L-5,6 L-5,3 L-1,4 Z " fill="#EEECEB" transform="translate(457,293)"/>
<path d="M0,0 L8,0 L8,17 L6,20 L-13,20 L-13,17 L5,17 L4,15 L-18,14 L-17,4 L-14,3 L-11,6 L4,7 L4,8 L-13,9 L-14,11 L4,10 L5,3 L-2,2 Z " fill="#F6F9F7" transform="translate(137,288)"/>
<path d="M0,0 L6,0 L9,4 L9,18 L6,22 L0,22 L-3,18 L-3,4 Z " fill="#C4060C" transform="translate(452,80)"/>
<path d="M0,0 L2,1 L6,18 L6,26 L1,27 L1,32 L-1,32 L-1,27 L-6,26 L-6,18 L-4,9 Z " fill="#F6F5F0" transform="translate(62,343)"/>
<path d="M0,0 L7,0 L12,3 L11,6 L1,5 L1,8 L11,12 L13,14 L13,21 L9,24 L-2,24 L-5,22 L-4,18 L0,19 L6,20 L8,20 L7,16 L-2,12 L-4,10 L-4,3 Z " fill="#E4DBD5" transform="translate(224,82)"/>
<path d="M0,0 L5,0 L6,1 L6,27 L4,33 L0,33 L-2,28 L-1,1 Z " fill="#3B1F1D" transform="translate(270,331)"/>
<path d="M0,0 L7,0 L8,3 L10,3 L10,0 L17,0 L17,9 L14,11 L8,13 L-2,13 L-5,12 L-5,5 L-1,3 Z " fill="#E5E8E1" transform="translate(245,361)"/>
<path d="M0,0 L7,0 L7,3 L4,6 L-4,6 L-4,8 L103,8 L103,9 L-40,9 L-40,8 L-7,7 L-14,6 L-15,3 L-3,2 Z " fill="#E7D4CF" transform="translate(217,313)"/>
<path d="M0,0 L6,0 L7,10 L-2,11 L-5,10 L-5,12 L-15,12 L-17,12 L-25,12 L-25,8 L-15,7 L-17,6 L-17,1 L-15,1 L-15,5 L-8,4 L-8,2 L-1,2 Z " fill="#E5DDD8" transform="translate(269,307)"/>
<path d="M0,0 L23,0 L23,4 L14,4 L14,30 L9,30 L9,4 L0,4 Z " fill="#E4DFD9" transform="translate(278,126)"/>
<path d="M0,0 L8,1 L10,4 L10,24 L6,24 L5,6 L4,5 L-1,5 L-3,8 L-4,24 L-8,24 L-8,1 L-3,2 Z " fill="#E6E8E1" transform="translate(205,82)"/>
<path d="M0,0 L23,0 L23,4 L14,4 L14,30 L9,30 L9,4 L0,4 Z " fill="#E4DFD9" transform="translate(308,76)"/>
<path d="M0,0 L4,1 L4,11 L6,11 L7,4 L12,3 L13,7 L10,10 L9,11 L15,11 L15,4 L19,5 L20,8 L17,11 L15,15 L-1,16 L0,30 L-6,28 L-3,27 L-3,15 L1,14 L1,12 L-2,11 L-2,4 L0,4 Z " fill="#C30D12" transform="translate(447,257)"/>
<path d="M0,0 L206,0 L206,1 L2,2 L0,3 L0,6 L-2,6 L-1,1 Z " fill="#EDD6D0" transform="translate(152,397)"/>
<path d="M0,0 L2,1 L4,11 L5,14 L7,14 L8,12 L10,12 L10,5 L12,5 L13,2 L14,18 L1,18 L1,25 L0,29 L-3,29 L-3,4 L-2,1 Z " fill="#F0EDE9" transform="translate(505,255)"/>
<path d="M0,0 L6,1 L6,24 L-3,24 L-3,1 Z " fill="#0F0B0B" transform="translate(456,335)"/>
<path d="M0,0 L13,0 L17,1 L17,8 L7,8 L9,10 L8,11 L2,11 L-2,10 L-2,8 L-8,9 L-9,2 L-4,1 Z " fill="#D8C6C4" transform="translate(456,235)"/>
<path d="M0,0 L46,0 L46,2 L52,3 L52,4 L33,4 L29,3 L29,27 L26,28 L26,1 L8,2 L7,4 L4,5 L3,10 L0,6 Z " fill="#EEEAE7" transform="translate(360,332)"/>
<path d="M0,0 L7,0 L6,3 L4,4 L3,8 L7,8 L7,11 L3,12 L1,18 L3,18 L6,22 L4,23 L3,32 L2,38 L4,36 L4,39 L7,39 L8,36 L9,42 L1,42 L3,57 L3,69 L1,72 L0,63 Z " fill="#F8F5F6" transform="translate(97,284)"/>
<path d="M0,0 L6,0 L11,3 L10,7 L5,5 L0,5 L-3,8 L-3,16 L-1,19 L6,19 L10,18 L10,22 L7,24 L-2,24 L-7,20 L-9,17 L-9,8 L-5,2 Z " fill="#E4DED8" transform="translate(376,82)"/>
<path d="M0,0 L10,0 L17,1 L14,3 L6,2 L6,17 L13,18 L9,19 L10,21 L16,22 L16,23 L-4,23 L-2,22 L-2,14 L-1,14 Z " fill="#F4F4F3" transform="translate(118,242)"/>
<path d="M0,0 L1,0 L1,14 L3,14 L3,16 L-20,14 L-20,13 L-14,12 L-12,1 Z " fill="#FBFAF9" transform="translate(474,312)"/>
<path d="M0,0 L7,0 L8,1 L8,24 L7,25 L1,25 L0,24 Z " fill="#705D58" transform="translate(501,335)"/>
<path d="M0,0 L5,0 L5,34 L3,35 L-1,34 L-1,29 L1,27 L-1,25 L-1,1 Z " fill="#9A393A" transform="translate(351,331)"/>
<path d="M0,0 L2,1 L3,27 L9,29 L9,31 L-3,31 L-4,33 L-4,1 L-3,3 L0,3 Z " fill="#F8F6F1" transform="translate(318,330)"/>
<path d="M0,0 L2,0 L2,6 L5,5 L6,0 L7,0 L7,6 L11,5 L11,7 L13,7 L14,5 L15,10 L19,11 L16,11 L16,14 L13,15 L13,9 L11,8 L11,18 L5,18 L6,12 L4,13 L4,18 L0,18 L-1,26 L-3,25 L-3,16 L-1,11 Z " fill="#EAE3DE" transform="translate(263,282)"/>
<path d="M0,0 L1,0 L2,5 L9,7 L8,11 L8,18 L12,18 L12,20 L6,20 L-3,23 L-5,12 L-9,8 L-2,6 Z " fill="#EFE9E4" transform="translate(428,233)"/>
<path d="M0,0 L3,0 L4,20 L6,23 L20,23 L20,25 L17,25 L18,35 L15,35 L9,35 L9,28 L15,26 L5,26 L2,27 L2,25 L-1,25 L-1,1 Z " fill="#DDCEC9" transform="translate(364,336)"/>
<path d="M0,0 L4,1 L5,29 L2,31 L-2,29 L-2,27 L-11,25 L-10,3 L-8,1 L-8,6 L-3,6 L-7,8 L-8,24 L-1,24 Z " fill="#EFECEA" transform="translate(519,335)"/>
<path d="M0,0 L7,0 L7,27 L0,27 Z " fill="#EEF4EB" transform="translate(401,257)"/>
<path d="M0,0 L21,0 L21,2 L12,3 L12,26 L22,26 L22,3 L23,3 L24,26 L33,27 L33,29 L0,29 L0,28 L10,28 L9,3 L0,2 Z " fill="#FEFEFC" transform="translate(441,333)"/>
<path d="M0,0 L2,0 L2,24 L-4,25 L-6,24 L-6,1 Z " fill="#0C0405" transform="translate(448,335)"/>
<path d="M0,0 L66,0 L66,1 L60,2 L60,3 L-4,3 L-4,1 Z " fill="#390709" transform="translate(182,322)"/>
<path d="M0,0 L8,0 L8,23 L0,23 Z " fill="#060101" transform="translate(465,336)"/>
<path d="M0,0 L12,0 L28,1 L28,9 L-1,9 L0,5 L16,4 L0,3 Z " fill="#EBE2DF" transform="translate(177,210)"/>
<path d="M0,0 L52,0 L51,2 L44,3 L42,5 L41,3 L34,3 L33,9 L32,9 L32,2 L24,3 L23,8 L22,8 L22,2 L9,3 L9,27 L7,25 L6,3 L-2,2 Z " fill="#FBFCFB" transform="translate(467,333)"/>
<path d="M0,0 L6,0 L6,26 L0,27 L-1,20 L-1,1 Z " fill="#181111" transform="translate(334,330)"/>
<path d="M0,0 L10,1 L12,3 L13,11 L-4,12 L-5,11 L-5,3 L-3,3 L-3,1 Z " fill="#030202" transform="translate(288,306)"/>
<path d="M0,0 L7,1 L9,4 L9,13 L6,16 L-1,16 L-4,12 L-4,4 Z " fill="#C5070E" transform="translate(258,86)"/>
<path d="M0,0 L5,1 L6,2 L6,9 L5,6 L0,5 L0,3 L-140,3 L-140,2 L-1,1 Z " fill="#F3E6DE" transform="translate(384,411)"/>
<path d="M0,0 L4,1 L3,3 L3,14 L8,15 L9,14 L16,14 L13,16 L13,20 L15,20 L16,24 L15,27 L9,29 L7,22 L3,22 L0,22 Z " fill="#F2F8F3" transform="translate(270,266)"/>
<path d="M0,0 L2,0 L3,25 L4,36 L5,31 L6,31 L5,44 L3,58 L2,58 L1,53 L0,58 L-1,58 Z " fill="#913B3E" transform="translate(146,283)"/>
<path d="M0,0 L7,0 L7,6 L10,6 L10,0 L17,0 L18,3 L20,3 L21,0 L26,0 L27,1 L27,7 L10,8 L7,7 L7,9 L-2,7 L-2,4 Z " fill="#C9C1BE" transform="translate(394,364)"/>
<path d="M0,0 L6,0 L7,1 L6,27 L0,27 Z " fill="#0D0808" transform="translate(203,330)"/>
<path d="M0,0 L22,1 L23,4 L21,5 L20,11 L15,11 L15,14 L21,14 L21,15 L15,16 L1,16 L1,15 L12,14 L14,10 L16,10 L15,5 L12,4 L12,11 L5,12 L5,10 L9,7 L9,4 L4,4 L3,11 L1,11 L1,4 L-1,3 L1,3 Z " fill="#E6C3BD" transform="translate(450,257)"/>
<path d="M0,0 L2,0 L6,11 L6,18 L1,20 L1,24 L-1,24 L-2,20 L-5,18 L-5,9 Z " fill="#F5EEEB" transform="translate(47,351)"/>
<path d="M0,0 L1,0 L0,19 L-1,34 L-2,34 L-2,21 L-16,21 L-17,19 L-3,19 L-3,17 L-21,16 L-21,13 L-2,13 L-3,9 L-17,9 L-17,7 L-3,6 L0,5 Z " fill="#AE9591" transform="translate(145,327)"/>
<path d="M0,0 L12,0 L14,11 L16,15 L16,23 L14,27 L10,29 L9,22 L8,4 L2,3 L2,1 Z " fill="#F7F9F3" transform="translate(347,327)"/>
<path d="M0,0 L2,0 L6,15 L6,22 L2,23 L2,28 L-3,23 L-4,22 L-4,13 Z " fill="#F5F2E5" transform="translate(562,347)"/>
<path d="M0,0 L10,0 L11,3 L6,3 L2,5 L11,6 L11,9 L2,10 L2,12 L5,12 L6,22 L6,26 L11,25 L11,33 L7,33 L7,31 L9,31 L9,29 L2,28 L0,10 Z " fill="#ACA9A7" transform="translate(98,326)"/>
<path d="M0,0 L36,0 L34,4 L20,5 L0,5 L-1,1 Z " fill="#F1F8F3" transform="translate(52,384)"/>
<path d="M0,0 L6,0 L6,27 L0,27 Z " fill="#090404" transform="translate(256,330)"/>
<path d="M0,0 L1,0 L1,5 L9,5 L10,0 L11,0 L11,5 L14,5 L14,7 L12,8 L11,20 L8,22 L3,21 L4,16 L8,16 L9,7 L2,7 L3,23 L12,24 L11,27 L4,27 L0,25 Z " fill="#F1E9E7" transform="translate(423,336)"/>
<path d="M0,0 L13,0 L13,8 L12,12 L7,11 L5,14 L0,14 L-1,10 L-1,3 Z " fill="#281B1A" transform="translate(282,330)"/>
<path d="M0,0 L5,0 L5,27 L-1,27 L-1,1 Z " fill="#0F0808" transform="translate(246,330)"/>
<path d="M0,0 L2,1 L2,13 L11,13 L11,2 L13,2 L14,11 L34,13 L37,14 L37,12 L40,12 L40,14 L47,13 L47,15 L-5,15 L-5,13 L0,13 Z " fill="#FDFDFD" transform="translate(440,314)"/>
<path d="M0,0 L12,0 L11,13 L-4,14 L-4,15 L-10,16 L-10,11 L7,10 L8,5 L-10,5 L-6,4 L-6,2 L-8,1 Z " fill="#F2F4F2" transform="translate(390,165)"/>
<path d="M0,0 L36,1 L38,4 L26,4 L25,15 L24,16 L18,16 L19,4 L3,4 L0,2 Z " fill="#C9BBB7" transform="translate(436,309)"/>
<path d="M0,0 L37,0 L41,3 L-7,4 L-8,10 L-12,10 L-14,10 L-14,7 L-16,7 L-16,10 L-19,10 L-19,5 L-21,3 L-18,2 L0,1 Z " fill="#6D4847" transform="translate(122,266)"/>
<path d="M0,0 L6,0 L6,26 L0,27 Z " fill="#070303" transform="translate(215,330)"/>
<path d="M0,0 L6,0 L6,26 L0,26 L-1,1 Z " fill="#020000" transform="translate(321,330)"/>
<path d="M0,0 L4,2 L10,9 L11,23 L4,23 L4,20 L8,21 L8,18 L6,18 L6,16 L4,15 L7,14 L7,10 L-4,11 L-7,13 L-9,11 L-6,9 L-6,5 L0,3 Z " fill="#F2F4F0" transform="translate(300,238)"/>
<path d="M0,0 L4,0 L5,5 L6,0 L10,0 L10,13 L5,12 L4,13 L-4,13 L-4,2 L-1,2 Z " fill="#412123" transform="translate(286,266)"/>
<path d="M0,0 L18,0 L25,2 L22,4 L21,18 L15,18 L14,16 L13,2 L0,1 Z " fill="#B0A19E" transform="translate(122,241)"/>
<path d="M0,0 L1,0 L1,14 L-9,15 L-11,16 L-11,18 L-17,21 L-24,20 L-23,15 L-22,14 L-22,8 L-21,12 L-16,12 L-15,5 L-13,9 L-7,9 L-7,12 L0,13 Z " fill="#F2F2EE" transform="translate(303,332)"/>
<path d="M0,0 L4,1 L4,33 L-1,34 L-1,1 Z " fill="#0F0203" transform="translate(310,330)"/>
<path d="M0,0 L5,0 L5,30 L0,30 Z " fill="#E3DBD5" transform="translate(270,126)"/>
<path d="M0,0 L5,0 L5,30 L0,30 Z " fill="#E3DBD5" transform="translate(186,76)"/>
<path d="M0,0 L7,0 L8,26 L6,27 L4,20 L4,7 L1,7 L1,27 L-1,27 L-1,4 Z " fill="#3F1717" transform="translate(229,331)"/>
<path d="M0,0 L1,0 L1,18 L0,26 L-14,26 L-14,25 L-3,25 L-4,18 L-6,14 L-8,14 L-9,8 L-5,7 L-2,2 L0,2 Z " fill="#F2F3EC" transform="translate(498,257)"/>
<path d="M0,0 L8,1 L10,8 L10,10 L5,11 L3,5 L1,5 L0,9 L3,9 L5,16 L-6,17 L-6,11 L-5,14 L-3,14 L-3,4 Z " fill="#F6F7F2" transform="translate(275,245)"/>
<path d="M0,0 L1,4 L4,4 L7,11 L6,14 L0,14 L-1,16 L5,17 L5,19 L1,21 L0,26 L-3,26 L-3,21 L-4,18 L-6,18 L-4,11 L0,11 L0,8 L-4,8 L-3,3 Z " fill="#BABBBA" transform="translate(104,284)"/>
<path d="M0,0 L2,1 L2,8 L0,10 L0,8 L-20,8 L-20,7 L-86,6 L-86,5 L-1,5 Z " fill="#824B49" transform="translate(549,324)"/>
<path d="M0,0 L5,5 L6,12 L5,20 L2,20 L2,14 L1,13 L1,20 L-3,20 L-4,12 L-6,12 L-6,10 L-4,10 L-3,4 Z " fill="#AE9794" transform="translate(291,209)"/>
<path d="M0,0 L6,0 L7,1 L7,13 L6,13 L6,5 L-10,5 L-22,4 L-22,7 L-6,7 L3,8 L3,9 L-23,10 L-23,1 L0,1 Z " fill="#A98B88" transform="translate(199,206)"/>
<path d="M0,0 L1,0 L2,5 L4,0 L5,0 L5,28 L2,31 L0,35 Z " fill="#F5FBF7" transform="translate(188,226)"/>
<path d="M0,0 L35,0 L36,2 L25,2 L19,1 L20,4 L18,4 L18,6 L21,7 L1,7 L1,6 L6,5 L3,3 Z " fill="#0E0303" transform="translate(388,375)"/>
<path d="M0,0 L5,0 L5,23 L-1,23 L-1,1 Z " fill="#AD9689" transform="translate(187,331)"/>
<path d="M0,0 L3,0 L2,8 L9,8 L10,0 L13,0 L12,8 L16,8 L16,11 L11,12 L9,16 L7,16 L8,11 L1,12 L0,17 L-3,16 L-2,11 L-7,11 L-7,9 L-1,9 Z " fill="#E6E9E3" transform="translate(226,126)"/>
<path d="M0,0 L11,0 L7,10 L5,9 L5,3 L-2,3 L-2,9 L-4,9 L-4,12 L-1,10 L10,11 L12,13 L-7,13 L-7,3 Z " fill="#F8FBF9" transform="translate(482,361)"/>
<path d="M0,0 L1,0 L1,13 L3,13 L3,11 L7,11 L7,25 L3,25 L4,30 L2,32 L1,44 L0,44 Z " fill="#F7F5EC" transform="translate(179,327)"/>
<path d="M0,0 L24,0 L26,1 L26,27 L24,26 L24,2 L8,2 L8,25 L6,22 L6,5 L7,2 L0,1 Z " fill="#FBFBF6" transform="translate(520,333)"/>
<path d="M0,0 L17,0 L19,6 L18,11 L0,10 L0,6 L16,6 L15,4 L4,4 L0,2 Z " fill="#D2CFCC" transform="translate(123,315)"/>
<path d="M0,0 L2,3 L3,15 L4,18 L3,22 L5,22 L4,27 L7,28 L6,34 L9,35 L5,35 L2,26 L-3,27 L-5,26 L-3,15 L-1,10 L-1,1 Z " fill="#F5F0EF" transform="translate(353,241)"/>
<path d="M0,0 L1,0 L2,24 L2,27 L0,29 L-1,34 L-3,34 L-4,36 L-13,37 L-14,33 L-12,29 L-4,29 L-4,26 L-14,26 L-14,25 L-1,24 Z " fill="#EDE7E1" transform="translate(543,335)"/>
<path d="M0,0 L1,0 L1,9 L3,9 L2,4 L4,4 L5,9 L3,11 L2,26 L10,25 L10,27 L3,28 L-1,27 L-3,28 L-4,6 L0,5 Z " fill="#E6D5D0" transform="translate(227,270)"/>
<path d="M0,0 L4,0 L4,29 L-2,31 L-7,29 L-7,28 L0,28 Z " fill="#FAFBF6" transform="translate(210,330)"/>
<path d="M0,0 L1,0 L1,13 L5,13 L6,10 L6,13 L14,13 L14,9 L16,9 L16,13 L24,13 L24,9 L26,9 L26,13 L33,12 L34,9 L36,9 L36,14 L26,15 L28,17 L12,17 L12,15 L5,16 L5,14 L0,14 Z " fill="#E1DBDC" transform="translate(475,312)"/>
<path d="M0,0 L4,1 L13,3 L13,5 L22,5 L23,7 L8,7 L3,5 L-3,6 L-7,7 L-23,7 L-21,5 L-4,2 Z " fill="#4C1C1D" transform="translate(291,257)"/>
<path d="M0,0 L4,0 L4,11 L3,17 L5,17 L6,12 L8,13 L8,21 L7,18 L3,19 L3,21 L-7,21 L-7,17 L-1,17 L-1,3 Z " fill="#F7E9E6" transform="translate(144,242)"/>
<path d="M0,0 L11,0 L14,3 L13,8 L11,10 L0,10 Z " fill="#C7171C" transform="translate(155,22)"/>
<path d="M0,0 L11,0 L16,1 L16,2 L-8,3 L-7,20 L-8,91 L-9,91 L-9,2 L-1,1 Z " fill="#EBCDC4" transform="translate(345,161)"/>
<path d="M0,0 L4,0 L4,5 L-1,6 L-2,8 L-3,24 L-7,24 L-7,1 Z " fill="#E5E6DF" transform="translate(340,82)"/>
<path d="M0,0 L1,2 L8,2 L8,9 L7,11 L1,11 L1,14 L6,14 L7,12 L6,20 L5,17 L1,17 L1,22 L4,23 L0,26 L-2,21 L0,21 L-1,11 L-4,11 L-4,9 L5,8 L5,5 L-5,5 L-4,3 L-1,2 Z " fill="#F3F2F0" transform="translate(104,327)"/>
<path d="M0,0 L7,0 L7,16 L6,17 L-1,17 Z " fill="#2F0B0A" transform="translate(481,343)"/>
<path d="M0,0 L4,0 L6,7 L6,16 L4,17 L-2,17 L-2,2 Z " fill="#221919" transform="translate(231,279)"/>
<path d="M0,0 L10,0 L13,3 L12,9 L10,10 L0,10 Z " fill="#C4050C" transform="translate(156,80)"/>
<path d="M0,0 L11,2 L12,7 L10,4 L11,8 L13,15 L10,14 L11,12 L4,12 L3,11 L2,4 L-3,5 L-5,9 L-7,3 L-11,1 L-4,1 L-4,3 Z " fill="#D9D3CC" transform="translate(305,305)"/>
<path d="M0,0 L1,0 L1,21 L0,26 L-3,22 L-3,16 L-16,16 L-16,15 L-5,14 L-20,13 L-16,10 L0,10 Z " fill="#EBDAD8" transform="translate(401,168)"/>
<path d="M0,0 L1,0 L1,84 L-1,84 L-4,74 L-3,71 L-1,71 Z " fill="#EDD6D1" transform="translate(364,171)"/>
<path d="M0,0 L81,0 L80,3 L79,28 L78,28 L78,2 L0,1 Z " fill="#EEECEA" transform="translate(468,332)"/>
<path d="M0,0 L1,0 L2,8 L2,12 L1,17 L0,17 L0,11 L-10,11 L-11,14 L-12,25 L-16,25 L-16,14 L-14,14 L-15,10 L-21,10 L-18,8 L-14,9 L0,9 L-9,8 L-9,7 L0,6 Z " fill="#DFD1D3" transform="translate(313,254)"/>
<path d="M0,0 L55,0 L55,1 L38,2 L38,3 L3,3 Z " fill="#350D0D" transform="translate(305,322)"/>
<path d="M0,0 L7,0 L8,6 L9,6 L11,0 L17,0 L17,7 L6,8 L1,8 L-2,9 L-2,6 L0,6 Z " fill="#E6E8EA" transform="translate(480,364)"/>
<path d="M0,0 L1,0 L1,13 L-13,12 L-13,5 L-1,3 Z " fill="#DEA197" transform="translate(167,283)"/>
<path d="M0,0 L1,0 L2,10 L11,11 L10,16 L-2,17 L-8,16 L-9,12 L-7,11 L0,11 Z " fill="#F2E2DD" transform="translate(190,183)"/>
<path d="M0,0 L17,0 L17,7 L16,8 L-2,8 L-1,5 L1,4 Z " fill="#B7B9B8" transform="translate(125,291)"/>
<path d="M0,0 L6,0 L7,5 L9,5 L9,0 L15,0 L16,1 L16,7 L5,8 L-1,7 L-2,9 L-3,5 L-1,1 Z " fill="#D6D1CC" transform="translate(502,364)"/>
<path d="M0,0 L3,0 L3,3 L0,3 L1,14 L3,20 L-2,21 L-9,21 L-14,20 L-13,10 L-12,10 L-12,15 L-1,16 L-1,1 Z " fill="#F5F6F3" transform="translate(358,280)"/>
<path d="M0,0 L1,0 L1,6 L-1,6 L-1,9 L-3,9 L-3,36 L-4,36 L-4,9 L-11,9 L-11,36 L-12,36 L-12,8 L-11,5 L-6,4 L-6,6 L-3,5 L-2,3 L0,3 Z " fill="#E6DAD2" transform="translate(412,248)"/>
<path d="M0,0 L8,0 L11,1 L10,4 L7,7 L3,6 L-1,10 L-7,10 L-7,7 L-5,3 L0,2 Z " fill="#F4F6EF" transform="translate(286,235)"/>
<path d="M0,0 L10,0 L12,2 L11,7 L10,8 L0,8 L-3,6 L-2,1 Z " fill="#F1EEE3" transform="translate(478,397)"/>
<path d="M0,0 L17,0 L16,2 L18,3 L18,7 L-1,7 L-1,1 Z " fill="#BE7D7B" transform="translate(380,181)"/>
<path d="M0,0 L12,0 L13,13 L14,18 L15,21 L15,32 L11,31 L10,3 L-4,2 Z " fill="#F8F8F5" transform="translate(252,327)"/>
<path d="M0,0 L1,0 L2,7 L5,11 L5,19 L-5,18 L-4,10 L-1,4 Z " fill="#F9F6EE" transform="translate(406,217)"/>
<path d="M0,0 L7,0 L7,15 L0,14 Z " fill="#1C1213" transform="translate(296,330)"/>
<path d="M0,0 L5,1 L4,4 L24,4 L24,5 L-17,5 L-20,2 Z " fill="#FAF9F8" transform="translate(520,324)"/>
<path d="M0,0 L21,1 L21,2 L12,3 L12,4 L-22,4 L-20,1 Z " fill="#B12427" transform="translate(298,322)"/>
<path d="M0,0 L6,1 L4,3 L0,4 L-3,12 L4,12 L4,13 L-3,14 L-7,11 L-26,10 L-26,9 L-10,9 L-10,7 L-12,6 Z M-7,9 Z " fill="#EAE3DF" transform="translate(289,293)"/>
<path d="M0,0 L14,0 L14,3 L1,3 L1,60 L0,60 L-1,1 Z " fill="#8F4547" transform="translate(96,280)"/>
<path d="M0,0 L6,0 L7,8 L11,8 L11,10 L-39,10 L-39,9 L-4,8 L-2,4 L-2,7 L4,7 L4,2 L0,3 Z " fill="#E0D2CB" transform="translate(158,269)"/>
<path d="M0,0 L3,1 L6,5 L6,8 L2,10 L1,13 L-12,13 L-12,10 L-7,10 L-7,4 L-3,3 L-2,7 L-4,9 L0,10 Z " fill="#B1060C" transform="translate(477,258)"/>
<path d="M0,0 L2,1 L3,14 L1,15 L-3,14 L-3,11 L-4,16 L-6,16 L-7,13 L-6,7 L-9,8 L-9,5 L-5,5 L-4,2 L-4,5 L0,5 Z " fill="#F9F8F4" transform="translate(234,263)"/>
<path d="M0,0 L2,0 L2,2 L19,2 L20,0 L20,15 L19,15 L19,4 L15,4 L15,10 L6,10 L6,3 L0,3 Z " fill="#BEADA9" transform="translate(342,298)"/>
<path d="M0,0 L11,1 L10,4 L4,4 L4,9 L1,10 L1,4 L-5,5 L-6,10 L-8,13 L-9,12 L-9,5 L-8,1 Z " fill="#FAFAF6" transform="translate(507,360)"/>
<path d="M0,0 L2,0 L3,3 L12,3 L13,1 L20,0 L21,5 L24,6 L14,7 L-2,7 Z " fill="#ECEBEC" transform="translate(439,303)"/>
<path d="M0,0 L1,0 L2,6 L10,8 L10,10 L8,10 L8,12 L13,12 L14,10 L15,14 L14,15 L0,15 Z " fill="#E9D7D3" transform="translate(97,347)"/>
<path d="M0,0 L1,0 L1,14 L0,14 L0,3 L-4,3 L-4,8 L-5,9 L-12,9 L-13,8 L-13,2 L-16,1 Z " fill="#C9B6B1" transform="translate(241,299)"/>
<path d="M0,0 L2,4 L2,11 L4,11 L4,30 L3,30 L2,18 L-2,18 L-2,12 L-5,10 L-4,5 L-1,5 Z " fill="#E9DAD5" transform="translate(317,282)"/>
<path d="M0,0 L4,1 L5,6 L5,16 L-1,16 L-2,12 L-2,5 Z " fill="#020101" transform="translate(351,279)"/>
<path d="M0,0 L9,0 L16,2 L12,4 L-7,4 L-27,3 L-27,2 Z " fill="#F5F7F1" transform="translate(327,318)"/>
<path d="M0,0 L6,0 L9,8 L9,12 L4,12 L4,9 L0,8 L0,12 L-3,12 L-2,7 Z " fill="#EAE9E3" transform="translate(186,308)"/>
<path d="M0,0 L1,0 L1,16 L-1,16 L-1,6 L-8,7 L-12,8 L-12,6 L-21,6 L-21,3 L-1,2 Z " fill="#EAEAE7" transform="translate(144,305)"/>
<path d="M0,0 L19,1 L19,6 L0,6 Z " fill="#B09A96" transform="translate(379,214)"/>
<path d="M0,0 L6,0 L7,10 L-2,11 L-5,10 L-5,8 L-3,8 L-4,5 Z " fill="#D7D0C6" transform="translate(269,307)"/>
<path d="M0,0 L1,0 L2,11 L1,36 L0,36 L-1,24 L-2,24 L-3,11 L-10,12 L-10,10 L-4,8 Z " fill="#673334" transform="translate(501,248)"/>
<path d="M0,0 L5,0 L6,1 L6,13 L52,13 L52,14 L42,15 L29,15 L5,14 L4,3 L-2,3 L-2,1 Z " fill="#1D0A0B" transform="translate(468,362)"/>
<path d="M0,0 L1,0 L1,28 L5,29 L6,7 L7,7 L7,32 L5,32 L5,34 L1,35 L0,29 L-6,30 L-6,27 L0,27 Z " fill="#C3B9B4" transform="translate(262,330)"/>
<path d="M0,0 L4,0 L4,23 L0,23 Z " fill="#E6EDE6" transform="translate(241,83)"/>
<path d="M0,0 L9,1 L9,29 L6,28 L8,28 L8,2 L2,3 L2,29 L-3,29 L-3,24 L-1,24 Z " fill="#E1D4CC" transform="translate(332,328)"/>
<path d="M0,0 L1,0 L2,23 L11,24 L11,26 L0,26 L-11,25 L-11,1 L-10,1 L-10,23 L0,23 Z " fill="#F6F2EF" transform="translate(463,336)"/>
<path d="M0,0 L2,0 L3,7 L2,11 L-2,12 L-2,14 L3,15 L3,16 L-8,16 L-9,8 L-7,1 L-5,1 L-5,9 L0,9 Z " fill="#F1E2E2" transform="translate(126,222)"/>
<path d="M0,0 L7,0 L9,2 L9,7 L6,9 L0,9 L-3,6 L-2,2 Z " fill="#F1EFEA" transform="translate(220,412)"/>
<path d="M0,0 L9,0 L8,8 L2,9 L2,15 L5,16 L1,17 L0,16 Z " fill="#433635" transform="translate(393,343)"/>
<path d="M0,0 L1,0 L1,8 L5,10 L4,12 L10,12 L10,13 L-25,13 L-25,12 L-8,12 L-8,8 L-1,9 Z " fill="#F0F5ED" transform="translate(210,361)"/>
<path d="M0,0 L8,0 L8,5 L6,7 L0,7 L1,23 L6,24 L6,25 L0,26 L-1,24 L-1,8 L-3,8 L-2,4 Z " fill="#D5D0D1" transform="translate(393,336)"/>
<path d="M0,0 L1,0 L1,9 L6,11 L6,16 L-7,16 L-6,12 L-1,8 Z " fill="#E4D7D6" transform="translate(375,304)"/>
<path d="M0,0 L17,0 L17,7 L0,7 L0,4 L16,4 L16,2 L0,2 Z " fill="#E8DBD8" transform="translate(379,259)"/>
<path d="M0,0 L8,0 L8,9 L2,9 L2,16 L0,16 Z " fill="#2F1413" transform="translate(404,343)"/>
<path d="M0,0 L6,0 L7,2 L7,11 L-1,11 L-1,1 Z " fill="#DFDAD9" transform="translate(533,347)"/>
<path d="M0,0 L1,0 L2,9 L6,10 L7,11 L7,16 L-5,16 L-4,11 L-1,9 Z " fill="#D9BAB4" transform="translate(535,304)"/>
<path d="M0,0 L3,4 L2,10 L-2,15 L-6,14 L-6,4 L-1,2 Z " fill="#F0F5EF" transform="translate(302,277)"/>
<path d="M0,0 L7,0 L7,10 L2,10 L2,14 L7,15 L6,17 L1,17 L0,16 Z " fill="#1A0C0D" transform="translate(425,343)"/>
<path d="M0,0 L1,0 L2,5 L9,7 L8,11 L7,8 L4,8 L4,11 L2,11 L2,19 L-3,18 L-3,9 L2,9 L2,7 L-5,8 L-1,4 Z " fill="#EBDFD9" transform="translate(428,233)"/>
<path d="M0,0 L22,0 L20,4 L0,4 Z " fill="#CBB0AB" transform="translate(379,224)"/>
<path d="M0,0 L2,2 L2,11 L0,14 L3,15 L1,16 L-3,14 L-3,12 L-1,11 Z M0,16 L1,19 L-2,20 L-2,25 L-4,26 L-11,26 L-8,25 L-9,20 L-11,19 L0,18 Z " fill="#CFADA6" transform="translate(434,345)"/>
<path d="M0,0 L1,0 L2,12 L4,15 L7,16 L7,19 L5,19 L5,23 L3,23 L4,30 L6,31 L6,33 L2,34 L1,13 L-2,13 L-1,2 Z " fill="#DDBAB9" transform="translate(442,238)"/>
<path d="M0,0 L2,1 L2,3 L8,3 L8,4 L2,4 L3,8 L8,9 L8,14 L2,15 L0,9 L-4,11 L-3,7 L-2,3 L-2,1 Z " fill="#E2E3DB" transform="translate(184,351)"/>
<path d="M0,0 L8,0 L8,18 L7,18 L7,9 L0,9 Z " fill="#200708" transform="translate(465,336)"/>
<path d="M0,0 L7,0 L7,3 L4,6 L-4,6 L-4,8 L-14,6 L-15,3 L-3,2 Z " fill="#B2A4A0" transform="translate(217,313)"/>
<path d="M0,0 L7,0 L8,1 L8,7 L6,9 L0,9 L-2,7 L-2,2 Z " fill="#F1E6DE" transform="translate(126,396)"/>
<path d="M0,0 L11,1 L11,4 L17,4 L17,5 L9,6 L8,8 L5,8 L5,6 L-2,6 L-3,1 Z " fill="#F4F3EE" transform="translate(310,325)"/>
<path d="M0,0 L1,3 L8,3 L9,5 L1,5 L1,8 L7,8 L7,11 L1,11 L1,14 L8,15 L7,18 L1,18 L-1,19 L-1,10 Z " fill="#CDA0A4" transform="translate(153,295)"/>
<path d="M0,0 L12,0 L28,1 L28,4 L16,4 L0,3 Z " fill="#F6ECE8" transform="translate(177,210)"/>
<path d="M0,0 L2,2 L12,4 L11,7 L9,8 L-10,8 L-10,6 L0,4 Z " fill="#AEA19F" transform="translate(332,310)"/>
<path d="M0,0 L16,0 L13,1 L13,13 L10,13 L10,1 L1,1 L1,14 L-3,14 L-3,3 L-2,3 L-2,13 L0,13 Z " fill="#B69898" transform="translate(452,362)"/>
<path d="M0,0 L1,2 L6,2 L6,3 L1,3 L1,8 L8,8 L8,16 L6,17 L0,16 Z " fill="#6B5553" transform="translate(511,343)"/>
<path d="M0,0 L2,0 L3,4 L3,25 L1,29 L0,29 Z " fill="#DCC4BD" transform="translate(271,333)"/>
<path d="M0,0 L5,0 L6,1 L6,10 L5,11 L0,11 L-2,8 L-2,2 L0,2 Z " fill="#130C0C" transform="translate(426,261)"/>
<path d="M0,0 L2,1 L3,10 L-2,9 L-4,24 L0,26 L-6,26 L-6,18 L-4,9 Z " fill="#E7DEDD" transform="translate(62,343)"/>
<path d="M0,0 L19,0 L19,5 L0,5 Z " fill="#E3C5C2" transform="translate(379,199)"/>
<path d="M0,0 L5,0 L6,6 L8,5 L7,9 L5,13 L5,14 L-13,14 L-13,13 L3,13 L3,10 L0,9 Z " fill="#EAE6E1" transform="translate(337,361)"/>
<path d="M0,0 L1,0 L2,22 L4,23 L16,23 L15,25 L3,28 L2,38 L1,38 L0,26 L1,24 L-8,24 L-8,23 L0,23 Z " fill="#DAD5D3" transform="translate(473,336)"/>
<path d="M0,0 L10,0 L11,3 L6,3 L2,5 L11,6 L11,9 L0,10 Z " fill="#E6E9EA" transform="translate(98,326)"/>
<path d="M0,0 L3,1 L3,6 L4,8 L6,9 L5,12 L-11,12 L-11,10 L-7,10 L-8,5 L-5,4 L-5,9 L0,10 Z " fill="#311D1B" transform="translate(274,290)"/>
<path d="M0,0 L4,0 L3,15 L2,15 L1,9 L-2,9 L-2,6 L-5,6 L-5,2 L-13,2 L-13,1 Z " fill="#EFE7E3" transform="translate(110,282)"/>
<path d="M0,0 L3,0 L3,24 L0,25 Z " fill="#635756" transform="translate(386,335)"/>
<path d="M0,0 L3,0 L4,9 L3,10 L-6,11 L-7,4 L0,4 Z " fill="#A9A7A7" transform="translate(106,307)"/>
<path d="M0,0 L1,0 L1,14 L-16,14 L-15,4 L-14,4 L-13,11 L-3,11 L-3,4 L-2,4 L-2,9 L0,9 Z " fill="#FBFBF9" transform="translate(240,286)"/>
<path d="M0,0 L6,0 L5,6 L5,15 L0,15 Z " fill="#92716E" transform="translate(124,244)"/>
<path d="M0,0 L12,0 L12,7 L1,6 Z " fill="#492B2A" transform="translate(461,236)"/>
<path d="M0,0 L3,0 L5,14 L6,17 L-2,17 Z " fill="#F4EBE6" transform="translate(144,222)"/>
<path d="M0,0 L2,0 L5,9 L5,17 L1,18 L0,22 Z " fill="#F3F5F1" transform="translate(337,181)"/>
<path d="M0,0 L10,0 L6,4 L9,7 L5,8 L5,6 L3,6 L3,25 L2,25 L2,5 L-5,5 L-6,9 L-6,4 L0,2 Z " fill="#DFD7D0" transform="translate(234,326)"/>
<path d="M0,0 L2,3 L1,5 L-2,6 L-19,6 L-19,2 L-10,2 L-10,4 L-7,2 L0,2 Z " fill="#F3F7F5" transform="translate(142,309)"/>
<path d="M0,0 L2,3 L4,13 L4,18 L3,14 L1,15 L1,17 L-5,18 L-5,13 L-3,13 L-1,2 Z " fill="#E5D5D0" transform="translate(189,279)"/>
<path d="M0,0 L2,0 L2,24 L-1,24 L-1,1 Z " fill="#2F2322" transform="translate(364,336)"/>
<path d="M0,0 L1,0 L1,17 L-1,18 L-27,17 L-25,15 L0,15 Z " fill="#6F171C" transform="translate(548,360)"/>
<path d="M0,0 L7,0 L7,10 L0,10 Z " fill="#372325" transform="translate(443,316)"/>
<path d="M0,0 L4,1 L1,1 L1,4 L3,5 L2,11 L0,10 L0,5 L-4,5 L-4,14 L-5,14 L-5,7 L-7,6 L-5,6 L-5,4 L-22,5 L-22,2 L-6,2 Z " fill="#D5C5C7" transform="translate(290,261)"/>
<path d="M0,0 L2,4 L2,6 L4,6 L5,2 L6,5 L10,3 L15,4 L11,5 L12,7 L18,8 L18,9 L-2,9 L0,8 Z " fill="#F6F8F6" transform="translate(116,256)"/>
<path d="M0,0 L1,0 L1,17 L5,17 L5,14 L7,14 L7,17 L10,18 L8,20 L10,21 L10,24 L7,25 L5,19 L-2,18 L-3,14 L0,13 L0,8 L-2,7 L0,7 Z " fill="#C9B7B4" transform="translate(473,236)"/>
<path d="M0,0 L4,1 L3,5 L-13,5 L-13,1 Z " fill="#9F090E" transform="translate(393,170)"/>
<path d="M0,0 L2,2 L5,10 L5,13 L-4,13 L-2,4 Z " fill="#C7161B" transform="translate(351,131)"/>
<path d="M0,0 L2,2 L5,10 L5,13 L-4,13 L-2,4 Z " fill="#C7161B" transform="translate(134,81)"/>
<path d="M0,0 L6,0 L6,10 L-1,10 L-1,1 Z " fill="#E0DFDE" transform="translate(374,347)"/>
<path d="M0,0 L2,4 L3,29 L5,31 L1,31 L-1,26 Z " fill="#481918" transform="translate(269,333)"/>
<path d="M0,0 L3,1 L4,25 L-1,25 L0,18 L0,11 L-3,10 L0,10 Z " fill="#D9CAC9" transform="translate(498,335)"/>
<path d="M0,0 L2,0 L2,14 L-3,14 L-3,1 Z " fill="#130504" transform="translate(190,340)"/>
<path d="M0,0 L6,0 L6,8 L5,12 L0,11 Z " fill="#100A0A" transform="translate(289,330)"/>
<path d="M0,0 L1,0 L1,13 L-4,13 L-4,15 L24,15 L24,16 L-7,16 L-7,7 L-6,11 L0,11 Z " fill="#D3BFBD" transform="translate(439,314)"/>
<path d="M0,0 L4,0 L4,14 L-1,14 L-1,8 L-6,8 L-6,7 L0,7 Z " fill="#F1F5F0" transform="translate(357,302)"/>
<path d="M0,0 L10,0 L17,1 L14,3 L6,2 L6,17 L8,18 L5,18 L4,3 L1,3 L1,18 L-1,17 Z " fill="#DFDBD9" transform="translate(118,242)"/>
<path d="M0,0 L1,0 L2,14 L1,15 L-12,15 L-10,13 L-10,3 L-9,3 L-9,12 L-2,12 L-2,3 L0,3 Z " fill="#543B3C" transform="translate(382,345)"/>
<path d="M0,0 L3,2 L2,8 L6,8 L6,10 L-9,10 L-9,7 L-7,7 L-6,5 L-6,7 L-1,7 L-1,1 Z " fill="#652424" transform="translate(313,292)"/>
<path d="M0,0 L1,3 L1,14 L7,14 L6,0 L8,3 L8,15 L0,15 L-3,14 L-3,2 L0,2 Z " fill="#918486" transform="translate(349,281)"/>
<path d="M0,0 L6,0 L6,11 L0,11 Z " fill="#5A5156" transform="translate(305,269)"/>
<path d="M0,0 L6,0 L7,7 L-11,7 L-11,4 L5,4 L5,2 L-11,2 L-11,1 Z " fill="#E6D1CB" transform="translate(390,238)"/>
<path d="M0,0 L3,0 L4,13 L5,19 L0,19 Z " fill="#D28784" transform="translate(230,338)"/>
<path d="M0,0 L3,3 L3,5 L6,5 L8,12 L-3,13 L-3,7 L-2,10 L0,10 Z " fill="#F5E7E2" transform="translate(272,249)"/>
<path d="M0,0 L1,2 L20,2 L20,3 L1,3 L1,6 L20,5 L19,8 L6,8 L1,7 L0,10 Z " fill="#582727" transform="translate(378,186)"/>
<path d="M0,0 L2,1 L5,10 L5,13 L-3,13 L-2,6 Z " fill="#C6141A" transform="translate(79,24)"/>
<path d="M0,0 L7,0 L7,6 L10,7 L7,7 L7,9 L-2,7 L-2,4 Z " fill="#E0E0DF" transform="translate(394,364)"/>
<path d="M0,0 L28,0 L28,1 L22,2 L22,3 L-5,3 L-5,2 L0,1 Z " fill="#420E10" transform="translate(220,322)"/>
<path d="M0,0 L2,4 L5,13 L5,19 L-1,17 L-2,7 L0,7 Z " fill="#2E0D0F" transform="translate(354,222)"/>
<path d="M0,0 L1,2 L7,2 L8,3 L8,9 L7,10 L1,10 L0,9 Z " fill="#614A48" transform="translate(414,350)"/>
<path d="M0,0 L7,0 L8,1 L8,8 L0,8 Z " fill="#C3B3B1" transform="translate(501,335)"/>
<path d="M0,0 L1,0 L1,44 L0,42 L-2,42 L-2,44 L-7,44 L-7,41 L-1,41 Z " fill="#CEC0BE" transform="translate(112,297)"/>
<path d="M0,0 L14,0 L13,7 L9,7 L7,7 L7,4 L5,4 L5,7 L2,7 L2,2 Z " fill="#977C78" transform="translate(101,269)"/>
<path d="M0,0 L4,4 L4,10 L2,12 L-3,12 L-3,4 Z " fill="#F9F9F3" transform="translate(291,209)"/>
<path d="M0,0 L6,1 L6,8 L1,11 L-1,11 L-1,2 Z " fill="#F1F6EB" transform="translate(223,358)"/>
<path d="M0,0 L1,3 L7,3 L8,4 L8,9 L6,11 L1,11 L0,10 Z " fill="#4C2E2B" transform="translate(491,349)"/>
<path d="M0,0 L5,0 L6,4 L6,14 L2,15 L0,6 Z " fill="#B7AAA5" transform="translate(236,280)"/>
<path d="M0,0 L2,0 L4,6 L14,6 L15,8 L8,11 L3,10 L2,4 L-1,4 Z " fill="#EFECE5" transform="translate(276,250)"/>
<path d="M0,0 L1,0 L1,13 L-19,13 L-19,12 L-3,11 L-3,2 L0,2 Z " fill="#E9E2DD" transform="translate(142,348)"/>
<path d="M0,0 L2,4 L0,6 L-16,6 L-18,5 L-18,3 L-14,2 L0,2 Z " fill="#B42A2C" transform="translate(169,277)"/>
<path d="M0,0 L2,0 L3,3 L3,11 L-2,12 L-2,17 L-4,17 L-4,12 L-6,11 L-4,10 L-4,6 L2,6 L2,4 L0,4 Z " fill="#F7F4EF" transform="translate(65,358)"/>
<path d="M0,0 L2,1 L2,8 L0,10 L0,8 L-20,8 L-19,6 L-1,6 Z " fill="#5F1D1F" transform="translate(549,324)"/>
<path d="M0,0 L6,0 L6,10 L0,10 Z " fill="#130C0B" transform="translate(466,316)"/>
<path d="M0,0 L9,0 L9,5 L7,5 L6,8 L3,8 L3,6 L-1,7 Z " fill="#F5F4EE" transform="translate(403,246)"/>
<path d="M0,0 L6,1 L5,4 L0,7 L-6,7 L-6,12 L-9,12 L-11,12 L-10,6 L-8,6 L-8,4 L-5,4 L-5,6 L-1,6 Z " fill="#EFF3E6" transform="translate(275,358)"/>
<path d="M0,0 L1,0 L1,5 L6,5 L2,7 L1,23 L7,23 L7,24 L-2,24 L-1,2 Z " fill="#E3DCD7" transform="translate(510,336)"/>
<path d="M0,0 L2,0 L2,4 L11,4 L12,0 L12,4 L20,4 L18,7 L6,7 L-3,6 L0,5 Z " fill="#EBE5E8" transform="translate(412,321)"/>
<path d="M0,0 L1,0 L1,14 L9,13 L9,15 L2,16 L-2,15 L-2,1 Z " fill="#C4BCBB" transform="translate(228,282)"/>
<path d="M0,0 L1,0 L0,19 L-2,23 L-4,19 L-4,8 L-1,8 Z " fill="#B0817E" transform="translate(362,275)"/>
<path d="M0,0 L8,0 L10,1 L10,8 L6,8 L7,1 L5,1 L4,6 L1,6 L1,4 L-1,4 Z " fill="#F3F2EC" transform="translate(115,269)"/>
<path d="M0,0 L3,0 L4,2 L4,9 L2,12 L-1,11 L-2,2 Z " fill="#2F2423" transform="translate(510,258)"/>
<path d="M0,0 L4,0 L4,9 L2,12 L-2,11 L-2,4 Z " fill="#7E1215" transform="translate(437,240)"/>
<path d="M0,0 L1,0 L1,26 L-1,29 L-3,29 L-3,6 L-2,6 L-1,20 Z " fill="#DCCECA" transform="translate(528,335)"/>
<path d="M0,0 L7,0 L7,9 L1,9 Z " fill="#482622" transform="translate(491,343)"/>
<path d="M0,0 L9,0 L14,1 L18,4 L12,4 L12,15 L10,15 L11,4 L3,5 L-2,4 L-2,3 L6,2 L0,1 Z " fill="#E1D3CF" transform="translate(284,326)"/>
<path d="M0,0 L4,3 L19,4 L19,5 L2,6 L1,11 L-3,10 L-2,1 Z " fill="#EFF7F2" transform="translate(122,291)"/>
<path d="M0,0 L5,0 L5,6 L1,7 L0,14 L-2,17 L-3,11 L-2,5 L-1,5 Z " fill="#E3CFCA" transform="translate(402,239)"/>
<path d="M0,0 L6,0 L5,6 L3,7 L-3,7 L-4,3 Z " fill="#C61218" transform="translate(353,95)"/>
<path d="M0,0 L8,0 L8,10 L1,9 L1,4 L6,4 L6,2 L0,2 Z " fill="#3D2A27" transform="translate(414,343)"/>
<path d="M0,0 L3,0 L3,24 L0,24 Z " fill="#3F2725" transform="translate(523,336)"/>
<path d="M0,0 L7,0 L14,2 L14,3 L8,3 L8,5 L0,7 L0,2 L-3,1 Z " fill="#F4F3E8" transform="translate(372,321)"/>
<path d="M0,0 L4,1 L4,11 L-2,11 L-1,1 Z " fill="#472D2F" transform="translate(456,314)"/>
<path d="M0,0 L5,0 L8,3 L8,6 L-4,6 L-2,2 Z " fill="#C50C12" transform="translate(284,86)"/>
<path d="M0,0 L2,2 L1,13 L-4,13 L-4,6 L-5,3 Z " fill="#F3F9EF" transform="translate(311,286)"/>
<path d="M0,0 L5,0 L5,2 L9,3 L10,6 L2,6 L-1,6 L-2,2 Z " fill="#B21217" transform="translate(449,279)"/>
<path d="M0,0 L2,0 L3,16 L18,17 L18,18 L-1,18 Z " fill="#F3EEEB" transform="translate(489,343)"/>
<path d="M0,0 L1,4 L5,5 L3,5 L4,8 L3,10 L5,9 L11,9 L6,13 L-2,12 L-1,7 L0,6 Z " fill="#E7E5DE" transform="translate(281,340)"/>
<path d="M0,0 L17,0 L23,1 L23,2 L12,3 L0,3 L-2,1 Z " fill="#A9060B" transform="translate(203,322)"/>
<path d="M0,0 L17,0 L18,3 L4,4 L0,2 Z " fill="#C1B7B3" transform="translate(123,315)"/>
<path d="M0,0 L18,0 L18,3 L0,3 Z " fill="#E6D0CC" transform="translate(379,230)"/>
<path d="M0,0 L5,0 L5,2 L7,2 L8,7 L6,11 L2,10 Z " fill="#E8E0D8" transform="translate(355,223)"/>
<path d="M0,0 L6,0 L6,10 L4,11 L0,10 L0,5 L2,3 Z " fill="#C1B2AA" transform="translate(350,355)"/>
<path d="M0,0 L1,0 L1,24 L-2,25 L-2,15 Z " fill="#C10E14" transform="translate(311,339)"/>
<path d="M0,0 L1,0 L1,5 L-4,6 L-7,5 L-6,11 L-13,10 L-13,5 L-1,3 Z " fill="#BF9496" transform="translate(167,283)"/>
<path d="M0,0 L1,0 L2,13 L-1,15 L-6,14 L-5,9 L-1,9 Z " fill="#DBCEC9" transform="translate(432,343)"/>
<path d="M0,0 L2,0 L2,4 L7,4 L8,2 L7,10 L6,7 L2,7 L2,12 L5,13 L1,16 L-1,11 L1,11 Z " fill="#EFECE8" transform="translate(103,337)"/>
<path d="M0,0 L9,0 L10,1 L10,12 L2,12 L0,9 Z M3,1 L3,11 L9,11 L9,1 Z " fill="#C7B9B6" transform="translate(463,315)"/>
<path d="M0,0 L6,0 L5,3 L3,4 L2,8 L6,8 L6,11 L2,12 L0,16 Z " fill="#F4F6F4" transform="translate(98,284)"/>
<path d="M0,0 L4,0 L4,13 L0,13 Z " fill="#3E1E1F" transform="translate(292,266)"/>
<path d="M0,0 L2,1 L3,6 L2,11 L0,11 L-1,18 L-2,18 L-2,1 Z " fill="#F7F7F6" transform="translate(505,255)"/>
<path d="M0,0 L4,0 L5,8 L1,9 L-2,7 L-2,1 Z " fill="#655856" transform="translate(397,351)"/>
<path d="M0,0 L8,1 L38,2 L38,3 L-3,3 L0,2 Z " fill="#432B2B" transform="translate(430,329)"/>
<path d="M0,0 L17,0 L17,3 L0,3 Z " fill="#E0D6D3" transform="translate(379,254)"/>
<path d="M0,0 L17,0 L17,3 L0,3 Z " fill="#D6B0A8" transform="translate(379,234)"/>
<path d="M0,0 L7,0 L6,7 L-1,7 L-1,1 Z " fill="#C71A1F" transform="translate(227,137)"/>
<path d="M0,0 L1,0 L3,9 L4,11 L-2,11 L-1,19 L-3,20 L-3,18 L-7,19 L-6,17 L-3,17 L-3,11 L-5,11 L-5,9 L-2,8 Z " fill="#EBD9DA" transform="translate(460,198)"/>
<path d="M0,0 L6,0 L6,7 L-1,8 L-1,1 Z " fill="#B8B4B2" transform="translate(491,364)"/>
<path d="M0,0 L6,0 L6,8 L-1,8 Z " fill="#503B39" transform="translate(406,352)"/>
<path d="M0,0 L6,0 L7,2 L7,8 L0,8 Z " fill="#1A0D0D" transform="translate(512,343)"/>
<path d="M0,0 L1,0 L2,13 L-4,13 L-4,7 L-3,5 L-1,5 Z " fill="#050302" transform="translate(354,342)"/>
<path d="M0,0 L9,0 L9,5 L2,6 L0,5 Z " fill="#787B72" transform="translate(134,271)"/>
<path d="M0,0 L1,0 L1,6 L-1,6 L-1,9 L-3,9 L-3,36 L-4,36 L-4,9 L-6,8 L-3,8 L-2,3 L0,3 Z " fill="#E1C7C1" transform="translate(412,248)"/>
<path d="M0,0 L2,1 L1,7 L5,7 L6,10 L-8,10 L-6,8 L-5,1 L-4,1 L-4,7 L0,7 Z " fill="#F5EFED" transform="translate(292,222)"/>
<path d="M0,0 L2,0 L3,2 L3,8 L-4,8 L-4,1 Z " fill="#573631" transform="translate(484,352)"/>
<path d="M0,0 L2,0 L5,10 L4,14 L4,11 L-3,13 L-2,8 Z " fill="#E9DAD4" transform="translate(562,347)"/>
<path d="M0,0 L14,0 L13,4 L1,5 L4,4 L4,1 Z " fill="#E0D5D0" transform="translate(153,283)"/>
<path d="M0,0 L1,0 L2,16 L11,17 L10,20 L3,20 L-1,18 Z " fill="#E6E3DD" transform="translate(424,343)"/>
<path d="M0,0 L14,0 L14,2 L19,2 L19,3 L0,3 Z " fill="#F5F6F5" transform="translate(123,337)"/>
<path d="M0,0 L2,0 L2,4 L9,3 L10,0 L12,0 L12,5 L2,6 L4,8 L-8,6 L-8,5 L0,5 Z " fill="#EAE6E8" transform="translate(499,321)"/>
<path d="M0,0 L3,0 L3,9 L1,9 L0,27 L-1,27 L-1,3 Z " fill="#B8A19F" transform="translate(345,271)"/>
<path d="M0,0 L6,0 L10,0 L19,0 L19,3 L0,3 Z " fill="#EDF1ED" transform="translate(460,254)"/>
<path d="M0,0 L4,1 L4,33 L3,33 L3,2 L1,3 L0,8 L-1,8 L-1,1 Z " fill="#7B5954" transform="translate(310,330)"/>
<path d="M0,0 L8,0 L8,5 L7,6 L1,6 L0,5 Z " fill="#1E1616" transform="translate(404,336)"/>
<path d="M0,0 L21,0 L21,2 L9,3 L0,2 Z " fill="#F6F8F8" transform="translate(441,333)"/>
<path d="M0,0 L1,0 L2,15 L3,18 L-1,26 L-3,26 L-2,19 L-1,18 Z " fill="#72181B" transform="translate(401,208)"/>
<path d="M0,0 L2,0 L2,2 L8,2 L8,4 L3,4 L2,15 L0,15 Z " fill="#CCC3C1" transform="translate(412,343)"/>
<path d="M0,0 L19,0 L19,2 L13,3 L9,4 L9,2 L0,2 Z " fill="#8F8B89" transform="translate(123,309)"/>
<path d="M0,0 L16,2 L12,4 L4,5 L3,16 L2,16 L2,1 Z " fill="#F3E8E3" transform="translate(177,304)"/>
<path d="M0,0 L15,0 L17,3 L0,3 Z " fill="#FAFDFC" transform="translate(124,305)"/>
<path d="M0,0 L3,1 L1,1 L1,6 L17,6 L17,8 L0,8 L-3,6 L0,6 Z " fill="#422726" transform="translate(180,297)"/>
<path d="M0,0 L6,0 L6,10 L1,10 Z " fill="#3F3E48" transform="translate(272,269)"/>
<path d="M0,0 L1,0 L2,8 L2,12 L1,17 L0,17 L0,11 L-12,11 L-12,10 L0,9 L-9,8 L-9,7 L0,6 Z " fill="#C4A5A1" transform="translate(313,254)"/>
<path d="M0,0 L1,0 L2,7 L5,11 L5,13 L0,12 L-4,13 L-3,9 Z " fill="#F1E4E1" transform="translate(406,217)"/>
<path d="M0,0 L2,3 L5,15 L4,18 L2,16 L0,13 L-2,5 Z " fill="#D3D4D0" transform="translate(347,211)"/>
<path d="M0,0 L17,0 L16,2 L6,3 L6,4 L0,5 Z " fill="#F6FAF9" transform="translate(380,176)"/>
<path d="M0,0 L11,0 L16,1 L16,2 L-8,3 L-8,10 L-9,10 L-9,2 L-1,1 Z " fill="#DFB9B1" transform="translate(345,161)"/>
<path d="M0,0 L7,0 L6,12 L5,12 L5,6 L0,7 Z " fill="#1B0A08" transform="translate(502,346)"/>
<path d="M0,0 L5,0 L5,22 L4,22 L3,5 L0,5 Z " fill="#D6BDB8" transform="translate(434,336)"/>
<path d="M0,0 L2,0 L4,16 L-1,16 L-1,4 Z " fill="#E7D1D3" transform="translate(231,241)"/>
<path d="M0,0 L2,3 L1,8 L-1,8 L-2,14 L-4,21 L-11,21 L-11,20 L-5,20 L-6,14 L-2,6 L-1,6 Z " fill="#DDD4D0" transform="translate(352,231)"/>
<path d="M0,0 L3,4 L5,11 L5,18 L3,18 L0,7 Z " fill="#590509" transform="translate(349,211)"/>
<path d="M0,0 L5,1 L5,3 L7,4 L-22,4 L-22,3 L-2,2 Z " fill="#921419" transform="translate(305,379)"/>
<path d="M0,0 L5,0 L5,2 L20,1 L20,6 L14,5 L14,3 L1,3 Z " fill="#D1D5D5" transform="translate(123,334)"/>
<path d="M0,0 L10,0 L14,2 L14,3 L-3,3 L-3,1 Z " fill="#F3F7F7" transform="translate(127,325)"/>
<path d="M0,0 L1,2 L0,5 L13,5 L14,0 L15,0 L15,6 L18,7 L15,9 L14,6 L-2,6 L-2,1 Z " fill="#E4D7CF" transform="translate(183,297)"/>
<path d="M0,0 L3,0 L4,5 L5,5 L5,11 L0,11 Z " fill="#715860" transform="translate(282,268)"/>
<path d="M0,0 L3,0 L3,15 L1,15 L0,13 Z " fill="#4D2F2F" transform="translate(140,244)"/>
<path d="M0,0 L5,1 L5,13 L3,13 L0,3 Z " fill="#E5B7A8" transform="translate(360,242)"/>
<path d="M0,0 L6,0 L6,7 L0,7 Z " fill="#644B4F" transform="translate(373,364)"/>
<path d="M0,0 L1,0 L1,10 L10,11 L10,12 L-2,12 L-2,1 Z " fill="#4F3936" transform="translate(531,348)"/>
<path d="M0,0 L2,2 L3,12 L4,13 L4,19 L2,20 L0,13 Z " fill="#A31114" transform="translate(233,338)"/>
<path d="M0,0 L12,0 L15,3 L11,4 L4,4 L1,2 Z " fill="#E6E4DE" transform="translate(289,317)"/>
<path d="M0,0 L6,0 L6,7 L0,7 Z " fill="#301F1E" transform="translate(186,308)"/>
<path d="M0,0 L7,0 L7,6 L0,6 Z " fill="#221615" transform="translate(349,302)"/>
<path d="M0,0 L7,0 L7,6 L0,6 Z " fill="#161010" transform="translate(229,302)"/>
<path d="M0,0 L2,0 L2,4 L-2,5 L-2,8 L4,8 L4,9 L-2,10 L-16,10 L-16,9 L-5,8 L-3,4 L-1,4 Z " fill="#EEDAD2" transform="translate(467,263)"/>
<path d="M0,0 L3,1 L4,4 L8,3 L7,6 L4,7 L3,11 L0,10 Z " fill="#852828" transform="translate(485,258)"/>
<path d="M0,0 L9,1 L5,2 L5,6 L7,7 L7,12 L4,11 L1,6 L1,2 Z " fill="#EBE7E2" transform="translate(462,242)"/>
<path d="M0,0 L8,0 L8,7 L7,4 L0,6 Z " fill="#543A37" transform="translate(404,343)"/>
<path d="M0,0 L1,2 L18,2 L18,4 L4,5 L1,5 Z " fill="#F4FAF8" transform="translate(121,341)"/>
<path d="M0,0 L8,0 L8,2 L4,4 L3,9 L0,9 L0,4 Z " fill="#8B8B8E" transform="translate(101,301)"/>
<path d="M0,0 L9,4 L10,1 L9,7 L5,6 L-5,2 L-1,1 Z " fill="#4C3033" transform="translate(297,292)"/>
<path d="M0,0 L1,0 L2,11 L-2,7 L-3,11 L-10,12 L-10,10 L-4,8 Z " fill="#C17473" transform="translate(501,248)"/>
<path d="M0,0 L17,0 L17,2 L0,3 Z " fill="#E5BEB8" transform="translate(379,246)"/>
<path d="M0,0 L13,0 L14,3 L2,3 L2,5 L-2,6 Z " fill="#E6CFCA" transform="translate(284,232)"/>
<path d="M0,0 L2,3 L9,4 L9,0 L11,0 L11,7 L-1,6 Z " fill="#E5DCDD" transform="translate(393,321)"/>
<path d="M0,0 L2,0 L2,2 L11,1 L22,1 L22,2 L16,3 L15,5 L11,5 L11,3 L0,4 Z " fill="#DACEC9" transform="translate(518,321)"/>
<path d="M0,0 L12,2 L12,3 L5,3 L5,5 L10,5 L10,6 L0,6 Z " fill="#F1F2EB" transform="translate(317,313)"/>
<path d="M0,0 L4,1 L5,5 L19,5 L19,6 L1,6 L-1,3 Z " fill="#E6E0D8" transform="translate(299,297)"/>
<path d="M0,0 L3,0 L5,5 L6,5 L6,11 L1,11 L1,2 L-1,1 Z " fill="#F7F0EB" transform="translate(314,289)"/>
<path d="M0,0 L3,0 L6,7 L5,10 L0,10 Z " fill="#857C7A" transform="translate(105,288)"/>
<path d="M0,0 L7,0 L7,1 L2,1 L3,15 L-3,13 L0,12 Z " fill="#8E1F24" transform="translate(444,272)"/>
<path d="M0,0 L5,0 L6,7 L5,10 L0,10 L2,7 L1,3 Z " fill="#EAD3D1" transform="translate(472,258)"/>
<path d="M0,0 L7,1 L6,6 L1,7 L-1,6 L-1,1 Z " fill="#7C4647" transform="translate(448,236)"/>
<path d="M0,0 L14,0 L17,2 L5,3 L-6,3 L-6,2 L0,1 Z " fill="#A5040A" transform="translate(374,375)"/>
<path d="M0,0 L5,0 L5,8 L0,7 Z " fill="#181212" transform="translate(246,361)"/>
<path d="M0,0 L3,0 L2,6 L2,13 L-8,13 L-8,12 L-2,11 Z " fill="#F5F3F1" transform="translate(462,313)"/>
<path d="M0,0 L12,0 L11,5 L1,3 Z " fill="#AC9F99" transform="translate(202,316)"/>
<path d="M0,0 L8,0 L8,5 L-1,5 Z " fill="#6C2F2A" transform="translate(154,271)"/>
<path d="M0,0 L9,1 L9,4 L12,5 L11,11 L14,12 L10,12 L7,3 L2,4 L0,3 Z " fill="#E7DEDA" transform="translate(348,264)"/>
<path d="M0,0 L1,0 L1,14 L-1,20 L-5,19 L-3,14 L-1,14 Z " fill="#E5C5C5" transform="translate(193,242)"/>
<path d="M0,0 L12,0 L11,3 L11,1 L9,1 L9,4 L0,4 Z " fill="#EDEBE4" transform="translate(390,165)"/>
<path d="M0,0 L3,0 L4,0 L4,7 L3,8 L-2,8 L-1,1 Z " fill="#ECE5D9" transform="translate(49,362)"/>
<path d="M0,0 L4,0 L4,8 L-1,7 L-1,1 Z " fill="#2D1311" transform="translate(257,361)"/>
<path d="M0,0 L5,1 L5,6 L-3,6 L-2,1 Z " fill="#F4E7E4" transform="translate(534,313)"/>
<path d="M0,0 L1,0 L1,12 L-1,13 L-6,12 L-6,3 L-5,3 L-5,10 L-3,10 L-3,2 L-2,2 L-2,10 L0,10 Z " fill="#C7C5C9" transform="translate(278,269)"/>
<path d="M0,0 L16,1 L17,3 L2,3 L0,2 Z " fill="#210909" transform="translate(297,261)"/>
<path d="M0,0 L1,0 L2,12 L3,17 L1,21 L1,13 L-2,13 L-1,2 Z " fill="#E4C7C8" transform="translate(442,238)"/>
<path d="M0,0 L2,1 L2,10 L5,11 L5,13 L1,12 L-1,9 L-1,1 Z " fill="#B11217" transform="translate(444,241)"/>
<path d="M0,0 L22,0 L21,2 L6,1 L7,5 L0,3 Z " fill="#E8DCD8" transform="translate(180,220)"/>
<path d="M0,0 L1,0 L1,5 L3,5 L3,8 L8,8 L8,12 L4,13 L2,12 L1,8 L2,6 L0,6 Z " fill="#BC938C" transform="translate(227,353)"/>
<path d="M0,0 L5,0 L1,2 L-2,5 L-2,10 L1,12 L-4,12 L-5,11 L-5,3 L-3,3 L-3,1 Z " fill="#3A2827" transform="translate(288,306)"/>
<path d="M0,0 L2,1 L11,2 L11,3 L4,3 L4,5 L18,5 L18,6 L3,6 L-1,4 Z " fill="#DFE3DE" transform="translate(121,287)"/>
<path d="M0,0 L3,1 L2,5 L-2,7 L-3,9 L-4,5 L-3,1 Z " fill="#C51015" transform="translate(457,260)"/>
<path d="M0,0 L9,0 L9,4 L0,4 Z " fill="#8A7474" transform="translate(124,233)"/>
<path d="M0,0 L4,0 L4,5 L2,7 L-4,7 L-3,4 L0,4 Z " fill="#F2F3EB" transform="translate(130,398)"/>
<path d="M0,0 L6,0 L6,6 L0,6 Z " fill="#2E1E1D" transform="translate(532,364)"/>
<path d="M0,0 L4,0 L3,3 L2,28 L1,28 L1,2 L-1,1 Z " fill="#ECDBD4" transform="translate(545,332)"/>
<path d="M0,0 L6,0 L6,6 L0,6 Z " fill="#352322" transform="translate(492,336)"/>
<path d="M0,0 L2,4 L13,5 L14,7 L-2,7 Z " fill="#FBFCFC" transform="translate(439,303)"/>
<path d="M0,0 L9,0 L9,5 L3,7 L0,5 L6,5 L6,2 L0,2 Z " fill="#7D3E40" transform="translate(154,301)"/>
<path d="M0,0 L5,1 L2,2 L2,4 L6,5 L4,9 L0,8 L3,7 L4,5 L-1,7 L-2,1 Z " fill="#E9D6CE" transform="translate(489,256)"/>
<path d="M0,0 L17,0 L17,2 L0,3 Z " fill="#EFDAD9" transform="translate(379,250)"/>
<path d="M0,0 L3,0 L3,6 L-18,6 L-18,5 L0,5 Z " fill="#AB8C89" transform="translate(135,233)"/>
<path d="M0,0 L2,3 L4,9 L4,15 L2,13 L0,6 L-2,7 L-3,2 Z " fill="#3C1919" transform="translate(350,207)"/>
<path d="M0,0 L3,3 L3,9 L1,9 L1,11 L3,12 L1,14 L-1,7 L-1,1 Z " fill="#E8DDD8" transform="translate(349,193)"/>
<path d="M0,0 L9,0 L13,2 L13,5 L11,4 L-4,3 Z " fill="#E0C1C3" transform="translate(385,178)"/>
<path d="M0,0 L1,0 L1,5 L-14,5 L-14,2 L-6,2 L-6,4 L0,4 Z " fill="#F5FBF6" transform="translate(546,369)"/>
<path d="M0,0 L7,0 L7,5 L0,5 Z " fill="#120B0C" transform="translate(511,336)"/>
<path d="M0,0 L7,0 L7,5 L0,5 Z " fill="#0F0909" transform="translate(394,336)"/>
<path d="M0,0 L12,2 L12,4 L0,4 Z " fill="#A2908D" transform="translate(123,321)"/>
<path d="M0,0 L2,4 L2,10 L-8,10 L-8,9 L-2,9 L-1,1 Z " fill="#EEF6EE" transform="translate(525,273)"/>
<path d="M0,0 L9,1 L8,4 L5,5 L3,8 L1,4 L-1,2 Z " fill="#F5E7D8" transform="translate(353,276)"/>
<path d="M0,0 L1,0 L1,5 L-1,7 L-4,7 L-5,10 L-8,10 L-6,6 L-2,2 L0,2 Z " fill="#EAE4E4" transform="translate(455,217)"/>
<path d="M0,0 L4,0 L4,7 L-1,7 L-1,1 Z " fill="#332625" transform="translate(321,361)"/>
<path d="M0,0 L5,0 L5,7 L0,6 Z " fill="#180C0C" transform="translate(187,331)"/>
<path d="M0,0 L1,0 L1,13 L-5,13 L-5,11 L-3,11 L-3,4 L-2,4 L-2,9 L0,9 Z " fill="#F4F3EE" transform="translate(240,286)"/>
<path d="M0,0 L3,1 L4,6 L3,9 L-1,9 L-1,2 Z " fill="#802023" transform="translate(290,281)"/>
<path d="M0,0 L2,0 L2,3 L5,4 L3,6 L5,7 L5,10 L2,11 L0,5 L-4,4 L-1,3 Z " fill="#DCCCC5" transform="translate(478,250)"/>
<path d="M0,0 L15,0 L17,2 L-4,3 Z " fill="#DAB5AF" transform="translate(182,199)"/>
<path d="M0,0 L5,1 L6,2 L6,9 L5,6 L0,5 Z " fill="#EAEADD" transform="translate(384,411)"/>
<path d="M0,0 L5,0 L4,7 L0,7 Z " fill="#2A201F" transform="translate(203,361)"/>
<path d="M0,0 L6,0 L6,5 L0,6 Z " fill="#3B2621" transform="translate(482,336)"/>
<path d="M0,0 L3,0 L3,11 L0,11 Z " fill="#2F1E20" transform="translate(297,268)"/>
<path d="M0,0 L7,1 L7,5 L1,6 L0,5 Z " fill="#646561" transform="translate(126,270)"/>
<path d="M0,0 L3,1 L6,5 L6,8 L0,9 Z " fill="#4E2C2B" transform="translate(477,258)"/>
<path d="M0,0 L1,0 L2,7 L4,9 L1,9 L1,12 L3,13 L-3,13 L-4,10 L-1,7 Z " fill="#E7D9D4" transform="translate(131,251)"/>
<path d="M0,0 L2,0 L3,9 L-2,10 L-3,4 L0,5 Z " fill="#E9DBD4" transform="translate(360,163)"/>
<path d="M0,0 L4,0 L4,8 L0,8 Z " fill="#201617" transform="translate(337,361)"/>
<path d="M0,0 L4,1 L5,4 L5,11 L2,8 L1,8 Z " fill="#F8F4EB" transform="translate(47,355)"/>
<path d="M0,0 L4,0 L4,8 L0,8 L0,6 L2,6 L2,4 L-3,3 L-3,1 Z " fill="#7F726F" transform="translate(105,351)"/>
<path d="M0,0 L8,0 L8,4 L0,4 Z " fill="#9B8C8A" transform="translate(244,315)"/>
<path d="M0,0 L4,0 L4,8 L0,8 Z " fill="#20100E" transform="translate(271,308)"/>
<path d="M0,0 L4,0 L4,8 L0,8 Z " fill="#170A0A" transform="translate(309,308)"/>
<path d="M0,0 L6,0 L6,3 L8,5 L0,7 Z " fill="#F4F3EC" transform="translate(447,274)"/>
<path d="M0,0 L4,1 L13,3 L13,4 L3,5 L-1,3 L-4,2 Z " fill="#642729" transform="translate(291,257)"/>
<path d="M0,0 L5,0 L4,9 L0,7 Z " fill="#E9D8CD" transform="translate(337,164)"/>
<path d="M0,0 L1,0 L1,12 L0,13 L-6,13 L-7,8 L-5,8 L-5,11 L0,11 Z " fill="#7C403E" transform="translate(508,347)"/>
<path d="M0,0 L6,0 L6,5 L0,6 Z " fill="#301312" transform="translate(502,336)"/>
<path d="M0,0 L2,0 L2,4 L10,4 L6,7 L1,7 L1,5 L-7,5 L-7,4 L0,4 Z " fill="#CAC0C2" transform="translate(489,321)"/>
<path d="M0,0 L12,0 L12,2 L9,3 L2,3 L0,2 Z " fill="#F9F8F7" transform="translate(97,277)"/>
<path d="M0,0 L8,0 L7,4 L-6,4 L-6,3 L-1,2 Z " fill="#D33D3C" transform="translate(471,267)"/>
<path d="M0,0 L8,1 L8,2 L2,2 L2,12 L0,8 L-1,3 Z " fill="#E7DFDB" transform="translate(303,267)"/>
<path d="M0,0 L1,0 L1,5 L5,5 L5,7 L2,7 L2,12 L-1,11 L0,6 L-4,5 L0,5 Z " fill="#E0CDCD" transform="translate(291,195)"/>
<path d="M0,0 L1,0 L1,5 L3,5 L4,3 L4,6 L-1,7 L-3,6 L-4,1 Z " fill="#711619" transform="translate(60,370)"/>
<path d="M0,0 L5,0 L5,6 L0,6 Z " fill="#3C333A" transform="translate(481,364)"/>
<path d="M0,0 L5,0 L4,7 L0,7 Z " fill="#2B1C1E" transform="translate(329,362)"/>
<path d="M0,0 L5,0 L5,6 L0,6 Z " fill="#302629" transform="translate(395,364)"/>
<path d="M0,0 L5,0 L6,1 L6,13 L5,13 L4,3 L-2,3 L-2,1 Z " fill="#943E42" transform="translate(468,362)"/>
<path d="M0,0 L4,0 L4,7 L0,8 Z " fill="#3A312E" transform="translate(211,361)"/>
<path d="M0,0 L8,2 L8,3 L-7,4 L-9,5 L-9,1 L0,2 Z M-10,5 Z " fill="#F5F3F0" transform="translate(412,358)"/>
<path d="M0,0 L6,0 L6,5 L0,5 Z " fill="#1C0E0F" transform="translate(425,336)"/>
<path d="M0,0 L6,0 L6,5 L0,5 Z " fill="#0E0202" transform="translate(415,336)"/>
<path d="M0,0 L4,1 L1,3 L0,16 L-2,12 L-2,5 Z " fill="#2F1C1E" transform="translate(351,279)"/>
<path d="M0,0 L9,0 L9,5 L5,3 L6,2 L1,1 L1,11 L0,11 Z " fill="#EFE0DD" transform="translate(446,273)"/>
<path d="M0,0 L2,3 L2,15 L0,15 L-1,10 L-1,1 Z " fill="#E2C7C7" transform="translate(353,241)"/>
<path d="M0,0 L3,3 L5,2 L5,9 L0,8 Z " fill="#EEE3DD" transform="translate(425,243)"/>
<path d="M0,0 L3,0 L2,10 L-1,10 L-1,3 Z " fill="#F7F9F4" transform="translate(432,241)"/>
<path d="M0,0 L1,3 L0,4 L-19,5 L-19,2 L-1,2 Z " fill="#F0E2E1" transform="translate(398,191)"/>
<path d="M0,0 L4,2 L3,9 L0,9 Z " fill="#C9272C" transform="translate(337,171)"/>
<path d="M0,0 L3,0 L2,8 L9,8 L9,9 L1,9 L-1,7 Z " fill="#E0C2BD" transform="translate(226,126)"/>
<path d="M0,0 L4,1 L5,5 L0,6 L-1,1 Z " fill="#E1CBC6" transform="translate(241,73)"/>
<path d="M0,0 L4,0 L4,6 L-1,6 L-1,1 Z " fill="#46322F" transform="translate(513,364)"/>
<path d="M0,0 L5,1 L5,6 L0,6 Z " fill="#221817" transform="translate(187,359)"/>
<path d="M0,0 L7,0 L7,8 L6,8 L6,3 L0,4 Z " fill="#614C4B" transform="translate(425,343)"/>
<path d="M0,0 L4,0 L4,7 L0,7 L-1,1 Z " fill="#080404" transform="translate(351,331)"/>
<path d="M0,0 L1,0 L1,5 L-2,6 L-3,2 L-15,2 L-15,1 Z " fill="#E4E1DC" transform="translate(144,327)"/>
<path d="M0,0 L1,2 L8,3 L7,6 L1,6 L-1,7 Z " fill="#C25D65" transform="translate(153,307)"/>
<path d="M0,0 L1,0 L2,8 L-5,8 L-6,10 L-5,6 L-1,5 L-2,1 Z " fill="#E5D3CE" transform="translate(484,261)"/>
<path d="M0,0 L1,0 L1,5 L-2,5 L0,7 L0,12 L-3,12 L-4,6 L-6,6 L-6,4 L0,4 Z " fill="#893C3D" transform="translate(227,263)"/>
<path d="M0,0 L2,0 L5,7 L5,10 L8,11 L3,10 L2,4 L-1,4 Z " fill="#C6978D" transform="translate(276,250)"/>
<path d="M0,0 L2,3 L2,14 L4,15 L4,18 L0,18 Z " fill="#5C2F30" transform="translate(474,235)"/>
<path d="M0,0 L3,3 L1,8 L-2,9 L-3,4 Z " fill="#F3ECEB" transform="translate(291,209)"/>
<path d="M0,0 L2,0 L3,3 L3,11 L-1,10 L0,6 L2,6 L2,4 L0,4 Z " fill="#EDE5DF" transform="translate(65,358)"/>
<path d="M0,0 L3,0 L2,15 L1,15 L0,8 Z " fill="#AB9A92" transform="translate(476,336)"/>
<path d="M0,0 L7,0 L14,2 L14,3 L5,3 L-3,2 Z " fill="#EAD3C7" transform="translate(372,321)"/>
<path d="M0,0 L1,0 L1,5 L-8,6 L-11,5 L-11,3 L-6,1 L-5,4 L0,4 Z " fill="#E0E0D9" transform="translate(275,312)"/>
<path d="M0,0 L2,1 L1,2 L3,4 L-1,4 L-1,8 L-7,8 L-6,4 L-6,7 L-3,7 L-3,2 Z " fill="#D9DADB" transform="translate(107,303)"/>
<path d="M0,0 L2,1 L2,6 L4,6 L4,8 L-5,8 L-1,5 Z " fill="#F7F4F3" transform="translate(354,257)"/>
<path d="M0,0 L5,0 L5,3 L10,3 L9,6 L9,4 L3,6 L1,2 L-1,1 Z " fill="#F2EDE9" transform="translate(504,254)"/>
<path d="M0,0 L4,1 L4,5 L0,6 L-1,1 Z " fill="#463235" transform="translate(290,243)"/>
<path d="M0,0 L4,0 L4,7 L0,7 Z " fill="#88514D" transform="translate(469,236)"/>
<path d="M0,0 L4,0 L4,7 L0,7 Z " fill="#F5F9F7" transform="translate(458,209)"/>
<path d="M0,0 L5,1 L6,6 L1,7 Z " fill="#F1EDE7" transform="translate(420,364)"/>
<path d="M0,0 L3,1 L3,7 L1,8 L-9,7 L-9,6 L0,6 Z " fill="#080202" transform="translate(540,352)"/>
<path d="M0,0 L2,0 L2,2 L6,3 L4,5 L3,10 L0,6 Z " fill="#D2D0CB" transform="translate(360,332)"/>
<path d="M0,0 L9,0 L9,3 L0,3 Z " fill="#827C7C" transform="translate(100,332)"/>
<path d="M0,0 L1,2 L5,2 L5,6 L1,7 L0,9 Z " fill="#6B5657" transform="translate(451,297)"/>
<path d="M0,0 L2,1 L2,4 L8,3 L8,6 L2,6 L1,8 Z " fill="#DFD7D7" transform="translate(457,293)"/>
<path d="M0,0 L1,0 L1,8 L6,7 L6,9 L8,10 L-1,10 Z " fill="#FAFAFA" transform="translate(345,290)"/>
<path d="M0,0 L9,0 L9,3 L0,3 Z " fill="#770F14" transform="translate(154,295)"/>
<path d="M0,0 L8,0 L8,6 L7,3 L0,4 Z " fill="#D85653" transform="translate(160,288)"/>
<path d="M0,0 L2,0 L2,2 L6,2 L6,5 L3,5 L3,11 L5,12 L2,13 L1,3 Z " fill="#EAE1DC" transform="translate(151,282)"/>
<path d="M0,0 L6,0 L7,7 L4,7 L4,2 L0,3 Z " fill="#EED4C5" transform="translate(158,269)"/>
<path d="M0,0 L2,0 L3,3 L1,4 L0,10 L-3,9 L-1,9 L-1,5 L-4,4 L-3,1 Z " fill="#D49591" transform="translate(470,258)"/>
<path d="M0,0 L2,0 L2,3 L4,3 L4,5 L-7,5 L-7,4 L-2,4 L-2,1 Z " fill="#F8F5F0" transform="translate(149,260)"/>
<path d="M0,0 L2,3 L2,7 L4,7 L4,0 L5,0 L5,8 L-1,9 Z " fill="#E8CACD" transform="translate(418,245)"/>
<path d="M0,0 L4,0 L4,6 L0,7 Z " fill="#5F2120" transform="translate(456,236)"/>
<path d="M0,0 L3,3 L2,10 L0,11 L-1,4 Z " fill="#861115" transform="translate(340,176)"/>
<path d="M0,0 L14,0 L14,1 L2,2 L0,3 L0,6 L-2,6 L-1,1 Z " fill="#EDE5DD" transform="translate(152,397)"/>
<path d="M0,0 L1,0 L1,6 L7,6 L7,0 L8,0 L8,7 L-1,8 L-2,4 Z " fill="#D3CBC5" transform="translate(531,364)"/>
<path d="M0,0 L2,1 L2,6 L-3,6 L-3,1 Z " fill="#381D19" transform="translate(419,364)"/>
<path d="M0,0 L5,0 L5,6 L0,5 Z " fill="#16100F" transform="translate(350,360)"/>
<path d="M0,0 L1,0 L1,11 L3,11 L4,16 L0,15 Z " fill="#EDEAE2" transform="translate(476,344)"/>
<path d="M0,0 L2,0 L3,4 L0,4 L1,10 L-2,8 L-4,8 L-2,3 Z " fill="#EFE5E2" transform="translate(47,351)"/>
<path d="M0,0 L4,1 L4,5 L1,5 L1,7 L5,8 L0,8 Z " fill="#F6FCFB" transform="translate(374,349)"/>
<path d="M0,0 L1,4 L7,5 L7,7 L0,9 Z " fill="#281417" transform="translate(394,344)"/>
<path d="M0,0 L7,0 L7,3 L0,4 Z " fill="#614940" transform="translate(481,343)"/>
<path d="M0,0 L2,2 L6,3 L6,5 L-5,5 L-4,3 L-1,2 Z " fill="#F8F9F9" transform="translate(104,327)"/>
<path d="M0,0 L14,1 L14,2 L7,3 L-1,3 Z " fill="#5F1F1E" transform="translate(365,319)"/>
<path d="M0,0 L6,1 L4,3 L-3,5 L-7,4 Z " fill="#DBD7D8" transform="translate(289,293)"/>
<path d="M0,0 L4,1 L3,3 L1,3 L1,19 L0,19 Z " fill="#FAFAFB" transform="translate(270,266)"/>
<path d="M0,0 L4,1 L5,4 L2,7 L0,6 Z " fill="#9E0B0F" transform="translate(462,261)"/>
<path d="M0,0 L4,0 L4,6 L0,7 Z " fill="#3D1614" transform="translate(403,239)"/>
<path d="M0,0 L1,0 L3,7 L2,11 L0,5 L-4,4 L-3,1 Z " fill="#E6E7E3" transform="translate(344,200)"/>
<path d="M0,0 L3,0 L2,8 L6,9 L1,9 L-1,7 Z " fill="#E1CAC5" transform="translate(236,126)"/>
<path d="M0,0 L5,0 L5,5 L0,5 Z " fill="#3B231E" transform="translate(502,365)"/>
<path d="M0,0 L2,3 L2,5 L-1,8 L-2,13 L-3,13 L-4,5 L-2,2 L-2,4 L0,4 Z " fill="#F6F5EC" transform="translate(563,355)"/>
<path d="M0,0 L1,0 L2,17 L-3,17 L-1,13 Z " fill="#E3D9D5" transform="translate(500,343)"/>
<path d="M0,0 L1,3 L3,3 L3,9 L-1,7 L-2,3 Z " fill="#EFE2D9" transform="translate(545,320)"/>
<path d="M0,0 L8,0 L8,3 L0,4 Z " fill="#817C7D" transform="translate(101,319)"/>
<path d="M0,0 L11,0 L12,3 L0,2 Z " fill="#826E67" transform="translate(129,315)"/>
<path d="M0,0 L6,0 L5,5 L1,4 Z " fill="#43302F" transform="translate(459,299)"/>
<path d="M0,0 L2,0 L2,7 L-2,7 L-2,2 Z " fill="#919191" transform="translate(123,270)"/>
<path d="M0,0 L4,1 L1,1 L1,4 L3,5 L2,11 L0,10 L0,5 L-2,4 L0,4 L0,2 L-2,1 Z " fill="#CCC1C3" transform="translate(290,261)"/>
<path d="M0,0 L7,1 L7,2 L2,2 L2,4 L0,4 L0,10 L-1,10 L-2,2 L0,2 Z " fill="#E1DED8" transform="translate(424,259)"/>
<path d="M0,0 L3,1 L-2,4 L-8,4 L-9,2 Z " fill="#1C0D0D" transform="translate(290,259)"/>
<path d="M0,0 L1,3 L11,4 L11,5 L0,6 Z " fill="#F6F1F0" transform="translate(269,256)"/>
<path d="M0,0 L6,0 L5,3 L3,3 L3,8 L1,7 Z " fill="#F8F5F3" transform="translate(229,257)"/>
<path d="M0,0 L4,0 L4,6 L0,6 Z " fill="#352928" transform="translate(492,364)"/>
<path d="M0,0 L4,0 L4,6 L0,6 Z " fill="#281B18" transform="translate(406,364)"/>
<path d="M0,0 L4,0 L4,6 L0,6 Z " fill="#E1D3D0" transform="translate(503,352)"/>
<path d="M0,0 L4,0 L4,6 L0,6 Z " fill="#E5E4E4" transform="translate(395,352)"/>
<path d="M0,0 L4,0 L4,6 L0,6 Z " fill="#F8F2ED" transform="translate(513,352)"/>
<path d="M0,0 L4,0 L4,6 L0,6 Z " fill="#E1C9C4" transform="translate(493,352)"/>
<path d="M0,0 L4,0 L4,6 L0,6 Z " fill="#EBE4E4" transform="translate(406,352)"/>
<path d="M0,0 L1,0 L1,6 L-5,6 L-4,1 Z " fill="#0F0403" transform="translate(497,346)"/>
<path d="M0,0 L3,0 L3,8 L0,8 Z " fill="#010000" transform="translate(456,316)"/>
<path d="M0,0 L2,0 L3,9 L0,9 L-1,1 Z " fill="#B7AAAD" transform="translate(474,301)"/>
<path d="M0,0 L3,0 L3,9 L0,7 Z " fill="#FAFBF6" transform="translate(357,302)"/>
<path d="M0,0 L3,1 L3,6 L4,8 L2,8 L1,10 L0,9 Z " fill="#3E2422" transform="translate(274,290)"/>
<path d="M0,0 L1,0 L1,9 L0,12 L-2,12 L-2,5 Z " fill="#F0EEEC" transform="translate(152,289)"/>
<path d="M0,0 L2,3 L4,7 L3,12 L1,12 L1,6 L-1,5 Z " fill="#945355" transform="translate(358,263)"/>
<path d="M0,0 L1,0 L1,5 L-1,5 L-2,8 L-5,8 L-5,6 L-9,7 L-9,5 L0,4 Z " fill="#F1EAE4" transform="translate(411,246)"/>
<path d="M0,0 L2,3 L2,8 L-3,11 L-2,6 Z " fill="#AF2E32" transform="translate(351,239)"/>
<path d="M0,0 L11,0 L11,3 L0,2 Z " fill="#F9F2F0" transform="translate(194,211)"/>
<path d="M0,0 L2,1 L1,9 L-3,8 L-2,3 L0,3 Z " fill="#EDEEE4" transform="translate(255,361)"/>
<path d="M0,0 L1,0 L1,7 L5,9 L-1,9 L-1,1 Z " fill="#DBD2D1" transform="translate(57,360)"/>
<path d="M0,0 L6,1 L5,4 L0,7 L-2,6 Z " fill="#E9E2D9" transform="translate(275,358)"/>
<path d="M0,0 L4,1 L4,6 L0,6 Z " fill="#E9E4E2" transform="translate(416,352)"/>
<path d="M0,0 L4,1 L4,6 L0,6 Z " fill="#F8FDFA" transform="translate(534,350)"/>
<path d="M0,0 L5,0 L1,1 L1,6 L4,7 L0,10 L-2,5 L0,5 Z " fill="#F6F2F1" transform="translate(104,343)"/>
<path d="M0,0 L4,1 L4,10 L3,10 L3,2 L1,3 L0,8 L-1,8 L-1,1 Z " fill="#6E4E4E" transform="translate(310,330)"/>
<path d="M0,0 L6,0 L6,12 L5,12 L3,2 L0,2 Z " fill="#271918" transform="translate(215,330)"/>
<path d="M0,0 L4,1 L5,4 L-1,5 L-2,3 Z " fill="#EBEEE4" transform="translate(241,327)"/>
<path d="M0,0 L7,0 L8,3 L-1,3 Z " fill="#767273" transform="translate(101,326)"/>
<path d="M0,0 L2,0 L1,3 L-1,4 L-7,4 L-6,1 Z " fill="#968985" transform="translate(342,314)"/>
<path d="M0,0 L3,0 L3,7 L1,7 L0,9 Z " fill="#F8F9F6" transform="translate(345,302)"/>
<path d="M0,0 L1,0 L1,5 L-7,6 L-7,3 L-5,2 L0,3 Z " fill="#F8F8F8" transform="translate(110,295)"/>
<path d="M0,0 L10,0 L9,2 L6,3 L4,6 L2,2 Z " fill="#F5EADA" transform="translate(148,269)"/>
<path d="M0,0 L1,0 L2,7 L-2,8 L-4,6 L-2,6 L-2,1 Z " fill="#CE9792" transform="translate(409,239)"/>
<path d="M0,0 L5,0 L4,6 L2,8 L0,2 Z " fill="#A98A87" transform="translate(139,230)"/>
<path d="M0,0 L1,0 L1,5 L4,6 L2,8 L1,16 L0,16 Z " fill="#742728" transform="translate(350,333)"/>
<path d="M0,0 L3,0 L3,2 L10,2 L10,3 L1,4 L-4,3 L0,2 Z " fill="#E8DEDB" transform="translate(438,333)"/>
<path d="M0,0 L6,0 L6,10 L5,10 L5,3 L-1,2 Z " fill="#391C1D" transform="translate(321,330)"/>
<path d="M0,0 L1,0 L1,6 L-6,7 L-6,5 L-2,2 L0,2 Z " fill="#E3BAB8" transform="translate(461,262)"/>
<path d="M0,0 L1,0 L1,10 L-2,9 L-2,3 L0,3 Z " fill="#FAFBF4" transform="translate(517,257)"/>
<path d="M0,0 L8,0 L9,3 L4,3 L2,5 Z " fill="#F0DAD7" transform="translate(458,259)"/>
<path d="M0,0 L2,4 L1,11 L-1,12 L-3,10 L-1,8 Z " fill="#EEDAD7" transform="translate(510,243)"/>
<path d="M0,0 L2,0 L2,5 L-3,6 L-4,3 L-1,3 Z " fill="#EAE9E6" transform="translate(227,414)"/>
<path d="M0,0 L5,0 L5,5 L1,5 Z " fill="#010000" transform="translate(373,365)"/>
<path d="M0,0 L3,0 L3,7 L0,7 Z " fill="#22100F" transform="translate(218,361)"/>
<path d="M0,0 L2,2 L2,6 L7,7 L6,9 L1,9 L0,8 Z " fill="#5B4642" transform="translate(425,351)"/>
<path d="M0,0 L7,1 L6,3 L0,3 L-4,5 Z " fill="#392222" transform="translate(289,350)"/>
<path d="M0,0 L2,0 L2,3 L5,3 L5,5 L1,6 L0,8 Z " fill="#2A1514" transform="translate(481,347)"/>
<path d="M0,0 L2,4 L2,6 L-6,6 L-5,4 L0,3 Z " fill="#F8FAFB" transform="translate(104,320)"/>
<path d="M0,0 L7,0 L6,3 L0,3 Z " fill="#702F2C" transform="translate(256,316)"/>
<path d="M0,0 L6,0 L6,3 L-2,3 L-2,1 Z " fill="#920308" transform="translate(84,311)"/>
<path d="M0,0 L3,0 L3,3 L0,3 L0,13 L-1,13 L-1,1 Z " fill="#F0EDEB" transform="translate(358,280)"/>
<path d="M0,0 L2,1 L2,6 L-2,8 L-2,3 Z " fill="#766267" transform="translate(290,271)"/>
<path d="M0,0 L3,0 L4,8 L1,8 Z " fill="#8E7A79" transform="translate(238,268)"/>
<path d="M0,0 L4,1 L4,4 L2,4 L2,8 L0,8 Z " fill="#D58B8B" transform="translate(445,253)"/>
<path d="M0,0 L1,0 L1,8 L-2,8 L-2,2 Z " fill="#B3070C" transform="translate(438,244)"/>
<path d="M0,0 L5,1 L6,4 L0,5 Z " fill="#F1F4F3" transform="translate(380,176)"/>
<path d="M0,0 L4,1 L4,6 L0,6 Z " fill="#E9D3CA" transform="translate(472,398)"/>
<path d="M0,0 L4,0 L4,5 L0,5 Z " fill="#100707" transform="translate(427,365)"/>
<path d="M0,0 L2,1 L3,10 L0,9 Z " fill="#E7DEDB" transform="translate(558,360)"/>
<path d="M0,0 L5,0 L5,4 L-1,3 Z " fill="#675458" transform="translate(396,345)"/>
<path d="M0,0 L4,0 L4,5 L0,5 Z " fill="#511919" transform="translate(434,336)"/>
<path d="M0,0 L10,1 L8,3 L0,3 Z " fill="#F1F6F3" transform="translate(282,326)"/>
<path d="M0,0 L8,1 L10,5 L4,3 Z " fill="#E8DEDB" transform="translate(296,291)"/>
<path d="M0,0 L2,0 L3,3 L2,5 L-1,5 L-1,10 L-2,10 L-2,3 L0,3 Z " fill="#7F2C2E" transform="translate(346,264)"/>
<path d="M0,0 L1,0 L3,9 L-1,8 L-2,2 L0,2 Z " fill="#EBE9E6" transform="translate(450,249)"/>
<path d="M0,0 L3,0 L3,7 L0,7 Z " fill="#F0C9C4" transform="translate(144,222)"/>
<path d="M0,0 L5,0 L4,4 L1,6 Z " fill="#E0D6CD" transform="translate(355,223)"/>
<path d="M0,0 L9,0 L8,2 L1,3 Z " fill="#F7F9F8" transform="translate(371,361)"/>
<path d="M0,0 L5,0 L4,4 L0,4 Z " fill="#F7F4F3" transform="translate(427,354)"/>
<path d="M0,0 L1,3 L-1,3 L-1,5 L-6,5 L-6,2 L0,2 Z " fill="#8C8681" transform="translate(111,336)"/>
<path d="M0,0 L2,0 L2,5 L-8,5 L-8,4 L-1,3 Z " fill="#D8CACD" transform="translate(509,321)"/>
<path d="M0,0 L4,0 L4,2 L9,2 L9,3 L-1,3 Z " fill="#DEDDD7" transform="translate(318,316)"/>
<path d="M0,0 L9,1 L9,2 L2,3 L2,5 L-2,4 L-2,1 Z " fill="#F1E6DF" transform="translate(254,314)"/>
<path d="M0,0 L3,0 L3,6 L0,7 Z " fill="#F8F7F5" transform="translate(225,302)"/>
<path d="M0,0 L1,4 L0,6 L-4,5 L-5,2 L0,3 Z " fill="#2B1818" transform="translate(306,293)"/>
<path d="M0,0 L2,0 L1,4 L-11,3 L-11,2 L-1,1 Z " fill="#A63E42" transform="translate(481,281)"/>
<path d="M0,0 L1,0 L1,9 L-4,8 L-3,5 L0,5 Z " fill="#E7D9D5" transform="translate(227,270)"/>
<path d="M0,0 L1,2 L4,3 L3,9 L6,10 L2,10 L0,4 Z " fill="#E4D3CE" transform="translate(356,266)"/>
<path d="M0,0 L2,3 L4,3 L3,7 L-1,8 Z " fill="#EADDDF" transform="translate(350,256)"/>
<path d="M0,0 L7,0 L9,3 L2,3 L0,2 Z " fill="#261212" transform="translate(297,261)"/>
<path d="M0,0 L6,0 L5,3 L0,4 Z " fill="#EEE6DE" transform="translate(137,259)"/>
<path d="M0,0 L2,1 L0,5 L-2,9 L-2,6 L-4,5 Z " fill="#EEDFE0" transform="translate(279,239)"/>
<path d="M0,0 L1,0 L2,5 L4,7 L-5,8 L-1,4 Z " fill="#ECD0D3" transform="translate(428,233)"/>
<path d="M0,0 L5,0 L5,2 L8,3 L0,3 Z " fill="#D4CDCA" transform="translate(100,357)"/>
<path d="M0,0 L1,0 L1,5 L6,5 L2,7 L-1,7 Z " fill="#EADEE1" transform="translate(510,336)"/>
<path d="M0,0 L4,0 L4,3 L10,3 L10,4 L2,5 L2,1 Z " fill="#E8E7E2" transform="translate(317,326)"/>
<path d="M0,0 L3,1 L0,4 L0,6 L-3,5 L-3,1 Z " fill="#EFE6E2" transform="translate(310,325)"/>
<path d="M0,0 L7,0 L7,3 L0,2 Z " fill="#680B10" transform="translate(154,307)"/>
<path d="M0,0 L3,0 L2,4 L-2,6 L-4,7 L-2,3 Z " fill="#C51317" transform="translate(165,302)"/>
<path d="M0,0 L1,0 L1,6 L4,7 L1,9 L-1,6 Z " fill="#CAA49D" transform="translate(197,297)"/>
<path d="M0,0 L5,0 L4,5 L-1,3 Z " fill="#EDE4DD" transform="translate(455,278)"/>
<path d="M0,0 L3,1 L2,5 L0,6 L-2,1 Z " fill="#C72023" transform="translate(457,260)"/>
<path d="M0,0 L3,0 L3,2 L5,2 L5,5 L0,4 Z " fill="#B68888" transform="translate(303,254)"/>
<path d="M0,0 L6,2 L4,4 L1,4 L-1,8 L-1,1 Z " fill="#EBEBE6" transform="translate(289,240)"/>
<path d="M0,0 L3,4 L3,9 L0,7 Z " fill="#860308" transform="translate(349,211)"/>
<path d="M0,0 L2,3 L0,7 L-2,7 L-2,5 L-5,4 L0,4 Z " fill="#E8E1D9" transform="translate(368,356)"/>
<path d="M0,0 L2,0 L2,6 L-1,6 L-1,1 Z " fill="#F3E9E1" transform="translate(484,352)"/>
<path d="M0,0 L2,4 L5,6 L-1,8 Z " fill="#EAE2E3" transform="translate(288,337)"/>
<path d="M0,0 L2,4 L4,5 L4,7 L-2,7 Z " fill="#F8F3F1" transform="translate(439,303)"/>
<path d="M0,0 L1,0 L1,5 L-3,8 L-2,2 L0,2 Z " fill="#E6DCD4" transform="translate(288,285)"/>
<path d="M0,0 L9,0 L8,4 L6,4 L6,1 L0,1 Z " fill="#DEBBB3" transform="translate(158,283)"/>
<path d="M0,0 L2,3 L2,8 L-1,7 Z " fill="#C58285" transform="translate(189,279)"/>
<path d="M0,0 L5,0 L4,2 L1,3 L-1,6 L-2,1 Z " fill="#DFC5B7" transform="translate(357,278)"/>
<path d="M0,0 L1,3 L5,3 L4,6 L0,6 Z " fill="#E5CDBF" transform="translate(238,273)"/>
<path d="M0,0 L2,0 L2,4 L-2,5 L-2,7 L-4,7 L-3,4 L-1,4 Z " fill="#E7BDBC" transform="translate(467,263)"/>
<path d="M0,0 L5,0 L5,4 L1,3 Z " fill="#EFE1DC" transform="translate(472,258)"/>
<path d="M0,0 L7,0 L7,3 L0,3 Z " fill="#F6F5F4" transform="translate(472,254)"/>
<path d="M0,0 L4,1 L4,6 L1,5 Z " fill="#E3E0DC" transform="translate(465,248)"/>
</svg>
